<?xml version="1.0" encoding="UTF-8"?>
<svg id="Layer_1" data-name="Layer 1" xmlns="http://www.w3.org/2000/svg" viewBox="0 0 755.35 86.99">
  <defs>
    <style>
      .cls-1 {
        fill: #333;
      }
    </style>
  </defs>
  <path class="cls-1" d="m53.74,67.02l-17.36-47.78c-1.05-2.51-2.2-4.91-3.35-7.11l-20.6,57.29c-2.4,7.63-3.76,13.59-1.36,15.89H0c2.72-2.61,7.63-8.99,11.19-18.3L31.68,9.83c-2.3-3.87-4.6-6.8-6.17-8.26h12.96l24.05,66.08c3.45,8.47,8.26,15.16,10.87,17.67h-17.46c2.72-2.61.84-9.51-2.2-18.3Z"/>
  <path class="cls-1" d="m81.55,66.29V20.6c0-8.57-1.67-16.42-4.39-19.03h16.62c-2.72,2.61-4.39,10.46-4.39,19.03v45.69c0,8.57.21,16.94,8.89,16.94h11.81c13.8,0,19.45-6.17,21.85-8.89l-2.51,8.89-.63,2.09h-51.65c2.72-2.61,4.39-10.46,4.39-19.03Z"/>
  <path class="cls-1" d="m147.1,66.29v-8.89l-19.24-37.53c-4.39-8.68-9.51-16-13.17-18.3h17.46c-2.72,2.61.63,10.04,4.81,18.3l16.94,33.25,16.73-33.25c4.29-8.78,7.11-15.79,4.5-18.3h11.19c-3.24,2.3-8.36,8.89-13.28,18.09l-18.09,35.97v10.66c0,8.57,1.67,16.42,4.39,19.03h-16.62c2.72-2.61,4.39-10.46,4.39-19.03Z"/>
  <path class="cls-1" d="m182.64,71.3l8.47-10.77c0,14.32,7.95,24.36,19.55,24.36,9.31,0,18.71-7.53,18.71-19.97,0-24.26-42.45-17.98-42.45-47.15,0-11.08,10.77-17.77,23-17.77s16.62,6.69,24.05,6.69l-7.32,9.2c-1.05-8.16-6.38-13.8-16.21-13.8-7.53,0-15.47,4.71-15.47,12.55,0,26.03,42.76,16.52,42.76,48.93,0,14.64-13.07,23.42-28.54,23.42-13.91,0-23.42-5.75-26.56-15.68Z"/>
  <path class="cls-1" d="m241.92,71.3l8.47-10.77c0,14.32,7.95,24.36,19.55,24.36,9.31,0,18.71-7.53,18.71-19.97,0-24.26-42.45-17.98-42.45-47.15,0-11.08,10.77-17.77,23-17.77s16.62,6.69,24.05,6.69l-7.32,9.2c-1.05-8.16-6.38-13.8-16.21-13.8-7.53,0-15.47,4.71-15.47,12.55,0,26.03,42.76,16.52,42.76,48.93,0,14.64-13.07,23.42-28.54,23.42-13.91,0-23.42-5.75-26.56-15.68Z"/>
  <path class="cls-1" d="m350.23,67.02l-17.36-47.78c-1.05-2.51-2.2-4.91-3.35-7.11l-20.6,57.29c-2.4,7.63-3.76,13.59-1.36,15.89h-11.08c2.72-2.61,7.63-8.99,11.19-18.3l20.49-57.19c-2.3-3.87-4.6-6.8-6.17-8.26h12.96l24.05,66.08c3.45,8.47,8.26,15.16,10.87,17.67h-17.46c2.72-2.61.84-9.51-2.2-18.3Z"/>
  <path class="cls-1" d="m447.67,67.02l-17.36-47.78c-1.05-2.51-2.2-4.91-3.35-7.11l-20.6,57.29c-2.4,7.63-3.76,13.59-1.36,15.89h-11.08c2.72-2.61,7.63-8.99,11.19-18.3l20.49-57.19c-2.3-3.87-4.6-6.8-6.17-8.26h12.96l24.05,66.08c3.45,8.47,8.26,15.16,10.87,17.67h-17.46c2.72-2.61.84-9.51-2.2-18.3Z"/>
  <path class="cls-1" d="m479.24,19.34c-1.25-3.14-2.61-5.96-4.08-8.36v55.31c0,8.57,1.67,16.42,4.39,19.03h-10.87c2.72-2.61,4.39-10.46,4.39-19.03V7.53c-1.78-2.72-3.45-4.81-4.7-5.96h17.46c-2.72,2.61-.84,9.51,2.2,18.3l16.83,48.72c.63,1.57,1.36,3.14,2.09,4.71L531.41,1.57h12.34c-2.72,2.61-4.39,10.46-4.39,19.03v45.69c0,8.57,1.67,16.42,4.39,19.03h-16.62c2.72-2.61,4.39-10.46,4.39-19.03V7.74l-23.21,68.06c2.61,4.5,5.33,7.84,7.11,9.51h-13.28l-22.9-65.97Z"/>
  <path class="cls-1" d="m554.4,66.29V20.6c0-8.57-1.67-16.42-4.39-19.03h51.65v8.16c-2.61-2.72-6.38-6.06-19.03-6.06h-11.61c-8.57,0-8.78,8.36-8.78,16.94v21.54c2.3-4.08,6.48-5.65,12.76-5.65h3.45c8.57,0,16.42-2.82,19.03-5.54v13.17c-2.61-2.72-10.46-5.54-19.03-5.54h-3.45c-8.57,0-12.76,3.24-12.76,13.8v13.91c0,8.57.21,16.94,8.89,16.94h10.77c13.8,0,19.45-6.17,21.85-8.89l-2.51,8.89-.63,2.09h-50.6c2.72-2.61,4.39-10.46,4.39-19.03Z"/>
  <path class="cls-1" d="m613.37,66.29V20.6c0-8.57-1.67-16.42-4.39-19.03h16.62c-2.72,2.61-4.39,10.46-4.39,19.03v45.69c0,8.57.21,16.94,8.89,16.94h11.82c13.8,0,19.45-6.17,21.85-8.89l-2.51,8.89-.63,2.09h-51.65c2.72-2.61,4.39-10.46,4.39-19.03Z"/>
  <path class="cls-1" d="m672.23,66.29V20.6c0-8.57-1.67-16.42-4.39-19.03h16.62c-2.72,2.61-4.39,10.46-4.39,19.03v45.69c0,8.57,1.67,16.42,4.39,19.03h-16.62c2.72-2.61,4.39-10.46,4.39-19.03Z"/>
  <path class="cls-1" d="m687.39,43.39c0-29.28,16-43.39,33.88-43.39s34.08,14.11,34.08,43.39-16.21,43.6-34.08,43.6-33.88-14.12-33.88-43.6Zm37.54,40.78c11.61,0,23.94-8.89,21.33-40.78-2.61-31.78-17.04-40.57-28.65-40.57s-23.73,8.78-21.12,40.57c2.61,31.89,16.94,40.78,28.44,40.78Zm-3.35-59.07c0,13.17,6.9,18.3,13.91,18.3-7,0-13.91,5.65-13.91,18.3,0-12.65-7.42-18.3-13.91-18.3,6.48,0,13.91-5.12,13.91-18.3Z"/>
</svg>