<?xml version="1.0" encoding="UTF-8"?>
<svg id="Layer_1" data-name="Layer 1" xmlns="http://www.w3.org/2000/svg" viewBox="0 0 100 100">
  <defs>
    <style>
      .cls-1 {
        fill: #ebebeb;
      }

      .cls-2 {
        fill: #fff;
      }

      .cls-3 {
        fill: #f16529;
      }

      .cls-4 {
        fill: #e44d26;
      }
    </style>
  </defs>
  <polygon class="cls-4" points="17.54 86 10.32 5 89.68 5 82.45 85.99 49.95 95 17.54 86"/>
  <polygon class="cls-3" points="50 88.11 76.26 80.83 82.44 11.62 50 11.62 50 88.11"/>
  <polygon class="cls-1" points="50 41.67 36.85 41.67 35.95 31.49 50 31.49 50 21.56 49.97 21.56 25.09 21.56 25.33 24.22 27.77 51.6 50 51.6 50 41.67"/>
  <polygon class="cls-1" points="50 67.47 49.96 67.48 38.89 64.49 38.18 56.57 32.81 56.57 28.21 56.57 29.6 72.17 49.95 77.82 50 77.8 50 67.47"/>
  <polygon class="cls-2" points="49.97 41.67 49.97 51.6 62.2 51.6 61.05 64.49 49.97 67.48 49.97 77.81 70.33 72.17 70.48 70.49 72.82 44.33 73.06 41.67 70.38 41.67 49.97 41.67"/>
  <polygon class="cls-2" points="49.97 21.56 49.97 27.73 49.97 31.47 49.97 31.49 73.93 31.49 73.93 31.49 73.96 31.49 74.16 29.26 74.61 24.22 74.85 21.56 49.97 21.56"/>
</svg>