<?xml version="1.0" encoding="UTF-8"?>
<svg id="Layer_1" data-name="Layer 1" xmlns="http://www.w3.org/2000/svg" viewBox="0 0 100 100">
  <defs>
    <style>
      .cls-1 {
        fill: #001e36;
      }

      .cls-2 {
        fill: #30a8ff;
      }
    </style>
  </defs>
  <rect class="cls-1" x="3.93" y="5" width="92.13" height="90" rx="16.55" ry="16.55"/>
  <path class="cls-2" d="m40.07,28.06h-15.02v40.01h8.43v-12.5h6.59c3.8,0,7.24-1.54,9.73-4.03,2.49-2.49,4.03-5.93,4.03-9.73,0-7.6-6.16-13.76-13.76-13.76Zm3.52,18.35c-1.18,1.17-2.8,1.9-4.59,1.9h-5.52v-12.98h5.52c3.58,0,6.49,2.91,6.49,6.49,0,1.79-.73,3.41-1.9,4.59Z"/>
  <path class="cls-2" d="m80.13,59.1c0,2.66-1.24,5.19-3.19,6.96-2.2,2-5.26,2.85-8.17,3.07-.35.03-.7.04-1.05.05-3.23.07-6.63-.62-9.57-1.98-.03-.01-.06-.03-.09-.04,0-2.36,0-4.71.01-7.07,0,.13,2.34.69,2.63.79,2.67.87,5.85,1.53,8.66,1.17.59-.08,1.2-.22,1.66-.61,1.73-1.44-.02-3.23-1.44-3.91-1.53-.74-3.18-1.21-4.74-1.89-1.48-.64-2.9-1.46-4.08-2.56-3.91-3.64-3.75-9.75.23-13.29,2.25-2,5.3-2.64,8.24-2.77,3.04-.13,6.11.41,8.93,1.57.11.04.22.1.28.2.05.09.05.19.05.29,0,2.41,0,4.81,0,7.22-.46-.39-1.09-.55-1.63-.79-.59-.26-1.19-.49-1.8-.68-2.17-.7-4.99-1.34-7.21-.57-.82.28-1.43.86-1.43,1.77,0,1.4,1.37,2.08,2.5,2.59,1.39.63,2.87,1.02,4.26,1.66,3.6,1.67,6.95,4.54,6.95,8.83Z"/>
</svg>