<?xml version="1.0" encoding="UTF-8"?>
<svg id="Layer_1" data-name="Layer 1" xmlns="http://www.w3.org/2000/svg" viewBox="0 0 300 300">
  <defs>
    <style>
      .cls-1 {
        fill: #333;
      }
    </style>
  </defs>
  <path class="cls-1" d="m76.32,41.49H14.95c-2.72,0-4.95,2.23-4.95,4.95v61.37c0,2.72,2.23,4.95,4.95,4.95h61.37c2.72,0,4.95-2.23,4.95-4.95v-61.37c0-2.72-2.23-4.95-4.95-4.95Zm-4.95,61.37H19.9v-51.47h51.47v51.47Z"/>
  <path class="cls-1" d="m289.38,105.43l-36.43-66.61c-.89-1.63-2.52-2.57-4.35-2.57s-3.47.94-4.31,2.57l-36.47,66.61c-.84,1.53-.79,3.41.1,4.9.89,1.48,2.53,2.42,4.26,2.42h72.9c1.73,0,3.37-.94,4.26-2.42.89-1.49.89-3.37.05-4.9Zm-68.84-2.57l28.06-51.37,28.11,51.37h-56.17Z"/>
  <path class="cls-1" d="m147.29,182.04c-22.52,0-40.83,18.31-40.83,40.83s18.31,40.88,40.83,40.88,40.83-18.36,40.83-40.88-18.31-40.83-40.83-40.83Zm0,71.81c-17.07,0-30.93-13.91-30.93-30.98s13.86-30.93,30.93-30.93,30.93,13.91,30.93,30.93-13.86,30.98-30.93,30.98Z"/>
  <path class="cls-1" d="m181.61,46.71c-1.44-2.32-4.49-3.04-6.81-1.6-2.32,1.44-3.04,4.49-1.6,6.81l9.45,15.25c-24.67-5.45-50.13-5.71-74.19-.62-2.67.56-4.38,3.19-3.82,5.86.57,2.67,3.18,4.38,5.87,3.82,22.65-4.79,46.64-4.55,69.91.58l-16.44,8.5c-2.43,1.26-3.38,4.24-2.12,6.67.88,1.7,2.61,2.68,4.4,2.68.77,0,1.54-.18,2.27-.56l27.4-14.17c1.23-.63,2.13-1.75,2.5-3.08.37-1.33.16-2.75-.56-3.92l-16.25-26.22Z"/>
  <path class="cls-1" d="m252.94,131.73c-2.68-.57-5.3,1.14-5.87,3.82-4.8,22.65-14.73,44.49-28.85,63.69l-1.12-18.47c-.17-2.73-2.52-4.8-5.24-4.64-2.73.17-4.81,2.51-4.64,5.24l1.86,30.79c.08,1.38.74,2.66,1.8,3.53.89.73,2,1.12,3.14,1.12.23,0,.45-.02.68-.05l30.55-4.24c2.71-.38,4.6-2.88,4.22-5.58-.37-2.71-2.87-4.6-5.58-4.22l-17.77,2.46c14.98-20.35,25.52-43.52,30.62-67.58.57-2.67-1.14-5.3-3.82-5.87Z"/>
  <path class="cls-1" d="m51.52,146.79l15.46,10.18c2.28,1.5,5.35.87,6.86-1.41,1.5-2.28.87-5.35-1.41-6.86l-25.76-16.97c-1.15-.76-2.57-1-3.91-.67-1.34.33-2.48,1.21-3.15,2.41l-14.92,27c-1.32,2.39-.45,5.4,1.94,6.73.76.42,1.58.62,2.39.62,1.74,0,3.43-.92,4.34-2.56l8.67-15.7c7.31,24.19,19.54,46.51,35.75,65.01.98,1.12,2.35,1.69,3.73,1.69,1.16,0,2.32-.41,3.26-1.23,2.06-1.8,2.26-4.93.46-6.98-15.26-17.42-26.78-38.45-33.69-61.26Z"/>
</svg>