<?xml version="1.0" encoding="UTF-8"?>
<svg id="Layer_1" data-name="Layer 1" xmlns="http://www.w3.org/2000/svg" viewBox="0 0 100 100">
  <defs>
    <style>
      .cls-1 {
        fill: #99f;
      }

      .cls-1, .cls-2 {
        stroke-width: 0px;
      }

      .cls-2 {
        fill: #00005b;
      }
    </style>
  </defs>
  <rect class="cls-2" y="1.31" width="100" height="97.37" rx="17.93" ry="17.93"/>
  <g>
    <path class="cls-1" d="m32.87,27.31c1.63,0,3.25,0,4.88,0,.76,0,.76,0,1.01.69,4.93,13.79,9.85,27.57,14.77,41.36.04.1.08.21.1.31.09.43-.03.58-.47.58-.99,0-1.97,0-2.96,0-1.75,0-3.5,0-5.26,0-.75,0-.81-.04-1.05-.73-1.03-3.02-2.08-6.04-3.1-9.06-.12-.37-.28-.5-.69-.5-4.77.02-9.54.01-14.31,0-.38,0-.54.12-.65.48-.95,2.98-1.92,5.96-2.88,8.94-.25.77-.36.85-1.17.85-2.33,0-4.66,0-6.99,0-.96,0-1.07-.14-.75-1.03,3.09-8.83,6.18-17.67,9.27-26.5,1.38-3.94,2.77-7.87,4.09-11.83.3-.9.31-1.9.42-2.85.07-.66.06-.69.71-.69,1.67,0,3.35,0,5.02,0Zm-5.09,24.51h10.34c-1.77-5.69-3.53-11.36-5.25-16.87-1.67,5.52-3.38,11.19-5.09,16.87Z"/>
    <path class="cls-1" d="m83.44,55.07c.39,0,1.78,0,1.78,0,0,0,0-3.42-.07-4.55-.1-1.92-.4-3.82-1.02-5.61-.97-2.79-2.8-5.18-5.37-6.68-1.38-.8-2.91-1.33-4.48-1.61-5.59-1-11.75.33-15.26,5.05-2.81,3.77-3.63,8.73-3.62,13.33,0,0,.03,14.09,15,15.21,0,0,6.56.49,11.91-1.84v-7.12s-16.65,5.06-17.74-6.25c2.56,0,5.11.02,7.67.03,3.73.01,7.47.02,11.2.04Zm-12.75-12.18c3.38,0,6.11,2.73,6.11,6.09h-12.23c0-3.37,2.74-6.09,6.11-6.09Z"/>
  </g>
</svg>