<?xml version="1.0" encoding="UTF-8"?>
<svg id="Layer_1" data-name="Layer 1" xmlns="http://www.w3.org/2000/svg" viewBox="0 0 90 90">
  <defs>
    <style>
      .cls-1 {
        fill: #00005b;
      }

      .cls-2 {
        fill: #99f;
      }
    </style>
  </defs>
  <path class="cls-1" d="m73.86,90H16.14c-8.91,0-16.14-7.42-16.14-16.57V16.57C0,7.42,7.22,0,16.14,0h57.73c8.91,0,16.14,7.42,16.14,16.57v56.85c0,9.15-7.22,16.57-16.14,16.57Z"/>
  <g>
    <path class="cls-2" d="m29.58,24.03c1.46,0,2.93,0,4.39,0,.68,0,.68,0,.91.64,4.43,12.74,8.87,25.48,13.3,38.23.03.09.07.19.09.29.08.39-.03.54-.43.54-.89,0-1.77,0-2.66,0-1.58,0-3.15,0-4.73,0-.67,0-.73-.04-.94-.68-.93-2.79-1.87-5.58-2.79-8.38-.11-.34-.26-.47-.62-.47-4.29.01-8.59.01-12.88,0-.35,0-.48.11-.59.44-.85,2.76-1.72,5.51-2.59,8.26-.22.71-.33.79-1.05.79-2.1,0-4.2,0-6.29,0-.87,0-.96-.13-.68-.95,2.78-8.17,5.57-16.33,8.34-24.5,1.24-3.64,2.5-7.28,3.68-10.94.27-.83.28-1.75.37-2.64.06-.61.05-.64.64-.64,1.51,0,3.01,0,4.52,0Zm-4.58,22.65h9.31c-1.59-5.26-3.18-10.5-4.72-15.6-1.5,5.11-3.04,10.34-4.58,15.6Z"/>
    <path class="cls-2" d="m75.1,49.69c.35,0,1.6,0,1.6,0,0,0,0-3.16-.06-4.21-.09-1.77-.36-3.53-.92-5.19-.87-2.58-2.52-4.79-4.84-6.17-1.24-.74-2.62-1.23-4.03-1.49-5.03-.93-10.57.31-13.74,4.67-2.53,3.49-3.27,8.07-3.26,12.32,0,0,.03,13.02,13.5,14.05,0,0,5.9.46,10.72-1.7v-6.58s-14.99,4.68-15.96-5.77c2.3,0,4.6.02,6.9.02,3.36.01,6.72.02,10.08.03Zm-11.48-11.26c3.04,0,5.5,2.52,5.5,5.63h-11.01c0-3.11,2.46-5.63,5.5-5.63Z"/>
  </g>
</svg>