<?xml version="1.0" encoding="utf-8"?>
<!-- Generator: Adobe Illustrator 27.8.1, SVG Export Plug-In . SVG Version: 6.00 Build 0)  -->
<svg version="1.1" id="Layer_1" xmlns="http://www.w3.org/2000/svg" xmlns:xlink="http://www.w3.org/1999/xlink" x="0px" y="0px"
	 viewBox="0 0 369.9 194.9" style="enable-background:new 0 0 369.9 194.9;" xml:space="preserve">
<style type="text/css">
	.st0{fill:#333333;}
</style>
<path class="st0" d="M81.6,66.4V20.7c0-8.6-1.7-16.4-4.4-19h16.6c-2.7,2.6-4.4,10.5-4.4,19v45.7c0,8.6,0.2,16.9,8.9,16.9h11.8
	c13.8,0,19.5-6.2,21.8-8.9l-2.5,8.9l-0.6,2.1H77.2C79.9,82.8,81.5,75,81.6,66.4L81.6,66.4z"/>
<path class="st0" d="M147.1,66.4v-8.9L127.9,20c-4.4-8.7-9.5-16-13.2-18.3h17.5c-2.7,2.6,0.6,10,4.8,18.3l16.9,33.2L170.6,20
	c4.3-8.8,7.1-15.8,4.5-18.3h11.2c-3.2,2.3-8.4,8.9-13.3,18.1l-18.1,36v10.7c0,8.6,1.7,16.4,4.4,19h-16.6
	C145.4,82.8,147.1,75,147.1,66.4L147.1,66.4z"/>
<path class="st0" d="M182.6,71.4l8.5-10.8c0,14.3,7.9,24.4,19.6,24.4c9.3,0,18.7-7.5,18.7-20c0-24.3-42.4-18-42.4-47.2
	C187,6.7,197.8,0,210,0s16.6,6.7,24.1,6.7l-7.3,9.2c-1.1-8.2-6.4-13.8-16.2-13.8c-7.5,0-15.5,4.7-15.5,12.6
	c0,26,42.8,16.5,42.8,48.9c0,14.6-13.1,23.4-28.5,23.4C195.3,87.1,185.8,81.3,182.6,71.4L182.6,71.4z"/>
<path class="st0" d="M241.9,71.4l8.5-10.8c0,14.3,7.9,24.4,19.6,24.4c9.3,0,18.7-7.5,18.7-20c0-24.3-42.4-18-42.4-47.2
	c-0.1-11,10.7-17.7,22.9-17.7s16.6,6.7,24,6.7l-7.3,9.2c-1-8.2-6.4-13.8-16.2-13.8c-7.5,0-15.5,4.7-15.5,12.6
	c0,26,42.8,16.5,42.8,48.9c0,14.6-13.1,23.4-28.5,23.4C254.6,87.1,245.1,81.3,241.9,71.4L241.9,71.4z"/>
<path class="st0" d="M85.3,127.2c-1.2-3.1-2.6-6-4.1-8.4v55.3c0,8.6,1.7,16.4,4.4,19H74.7c2.7-2.6,4.4-10.5,4.4-19v-58.7
	c-1.8-2.7-3.5-4.8-4.7-6h17.5c-2.7,2.6-0.8,9.5,2.2,18.3l16.8,48.7c0.6,1.6,1.4,3.1,2.1,4.7l24.5-71.7h12.3
	c-2.7,2.6-4.4,10.5-4.4,19v45.7c0,8.6,1.7,16.4,4.4,19h-16.6c2.7-2.6,4.4-10.5,4.4-19v-58.5l-23.2,68.1c2.6,4.5,5.3,7.8,7.1,9.5
	h-13.3L85.3,127.2L85.3,127.2z"/>
<path class="st0" d="M160.5,174.2v-45.7c0-8.6-1.7-16.4-4.4-19h51.7v8.2c-2.6-2.7-6.4-6.1-19-6.1h-11.7c-8.6,0-8.8,8.4-8.8,16.9V150
	c2.3-4.1,6.5-5.7,12.8-5.7h3.5c8.6,0,16.4-2.8,19-5.5V152c-2.6-2.7-10.5-5.5-19-5.5h-3.5c-8.6,0-12.8,3.2-12.8,13.8v13.9
	c0,8.6,0.2,16.9,8.9,16.9H188c13.8,0,19.5-6.2,21.8-8.9l-2.5,8.9l-0.6,2.1h-50.6C158.8,190.6,160.5,182.8,160.5,174.2L160.5,174.2z"
	/>
<path class="st0" d="M219.5,174.2v-45.7c0-8.6-1.7-16.4-4.4-19h16.6c-2.7,2.6-4.4,10.5-4.4,19v45.7c0,8.6,0.2,16.9,8.9,16.9H248
	c13.8,0,19.5-6.2,21.8-8.9l-2.5,8.9l-0.6,2.1h-51.6C217.8,190.6,219.5,182.8,219.5,174.2L219.5,174.2z"/>
<path class="st0" d="M278.3,174.2v-45.7c0-8.6-1.7-16.4-4.4-19h16.6c-2.7,2.6-4.4,10.5-4.4,19v45.7c0,8.6,1.7,16.4,4.4,19h-16.6
	C276.7,190.6,278.3,182.8,278.3,174.2z"/>
<path class="st0" d="M293.5,151.3c0-29.3,16-43.4,33.9-43.4s34.1,14.1,34.1,43.4s-16.3,43.6-34.1,43.6S293.5,180.8,293.5,151.3z
	 M331,192.1c11.6,0,23.9-8.9,21.3-40.8c-2.6-31.8-17-40.6-28.7-40.6s-23.7,8.8-21.1,40.6C305.2,183.2,319.5,192.1,331,192.1z
	 M327.7,133c0,13.2,6.9,18.3,13.9,18.3c-7,0-13.9,5.7-13.9,18.3c0-12.7-7.4-18.3-13.9-18.3C320.3,151.3,327.7,146.2,327.7,133z"/>
<path class="st0" d="M73.4,85.4c-2.6-2.5-7.4-9.2-10.9-17.7l-24-66.1h-13c1.6,1.5,3.9,4.5,6.2,8.3L11.2,67.1
	C7.6,76.4,2.7,82.8,0,85.4h11.1c-2.4-2.3-1.1-8.3,1.3-15.9l5.4-15h31.3l4.6,12.6l0,0c3,8.8,4.9,15.7,2.2,18.3H73.4z M18.6,52.5
	L33,12.2c1.1,2.2,2.3,4.6,3.3,7.1l12,33.1L18.6,52.5z"/>
<path class="st0" d="M369.9,85.4c-2.6-2.5-7.4-9.2-10.9-17.7l-24-66h-13c1.6,1.5,3.9,4.4,6.2,8.3l-20.5,57.1
	c-3.6,9.3-8.5,15.7-11.2,18.3h11.1c-2.4-2.3-1-8.3,1.4-15.9l5.4-15h31.3l4.6,12.7l0,0c3,8.8,4.9,15.7,2.2,18.3L369.9,85.4
	L369.9,85.4z M315,52.5l14.5-40.2c1.1,2.2,2.3,4.6,3.3,7.1l12,33.1H315z"/>
<path class="st0" d="M73.4,193.2c-2.6-2.5-7.4-9.2-10.9-17.7l-24-66.1h-13c1.6,1.5,3.9,4.4,6.2,8.3l-20.5,57.2
	c-3.6,9.3-8.5,15.7-11.2,18.3h11.1c-2.4-2.3-1-8.3,1.4-15.9l5.4-15h31.3l4.6,12.7l0,0c3,8.8,4.9,15.7,2.2,18.3L73.4,193.2
	L73.4,193.2z M18.6,160.3L33.1,120c1.1,2.2,2.3,4.6,3.3,7.1l12,33.1L18.6,160.3z"/>
</svg>
