<?xml version="1.0" encoding="utf-8"?>
<!-- Generator: Adobe Illustrator 27.8.1, SVG Export Plug-In . SVG Version: 6.00 Build 0)  -->
<svg version="1.1" id="Layer_1" xmlns="http://www.w3.org/2000/svg" xmlns:xlink="http://www.w3.org/1999/xlink" x="0px" y="0px"
	 viewBox="0 0 755.3 87" style="enable-background:new 0 0 755.3 87;" xml:space="preserve">
<style type="text/css">
	.st0{fill:#333333;}
</style>
<path class="st0" d="M81.6,66.3V20.6c0-8.6-1.7-16.4-4.4-19h16.6c-2.7,2.6-4.4,10.5-4.4,19v45.7c0,8.6,0.2,16.9,8.9,16.9h11.8
	c13.8,0,19.5-6.2,21.8-8.9l-2.5,8.9l-0.6,2.1H77.2C79.9,82.7,81.5,74.9,81.6,66.3L81.6,66.3z"/>
<path class="st0" d="M147.1,66.3v-8.9l-19.2-37.5c-4.4-8.7-9.5-16-13.2-18.3h17.5c-2.7,2.6,0.6,10,4.8,18.3l16.9,33.2l16.7-33.2
	c4.3-8.8,7.1-15.8,4.5-18.3h11.2c-3.2,2.3-8.4,8.9-13.3,18.1l-18.1,36v10.7c0,8.6,1.7,16.4,4.4,19h-16.6
	C145.4,82.7,147.1,74.9,147.1,66.3L147.1,66.3z"/>
<path class="st0" d="M182.6,71.3l8.5-10.8c0,14.3,7.9,24.4,19.6,24.4c9.3,0,18.7-7.5,18.7-20c0-24.3-42.4-18-42.4-47.2
	c0-11.1,10.8-17.8,23-17.8s16.6,6.7,24.1,6.7l-7.3,9.2c-1.1-8.2-6.4-13.8-16.2-13.8c-7.5,0-15.5,4.7-15.5,12.6
	c0,26,42.8,16.5,42.8,48.9c0,14.6-13.1,23.4-28.5,23.4C195.3,87,185.8,81.2,182.6,71.3L182.6,71.3z"/>
<path class="st0" d="M241.9,71.3l8.5-10.8c0,14.3,7.9,24.4,19.6,24.4c9.3,0,18.7-7.5,18.7-20c0-24.3-42.4-18-42.4-47.2
	C246.2,6.7,257,0,269.2,0s16.6,6.7,24,6.7l-7.3,9.2c-1-8.2-6.4-13.8-16.2-13.8c-7.5,0-15.5,4.7-15.5,12.6c0,26,42.8,16.5,42.8,48.9
	c0,14.6-13.1,23.4-28.5,23.4C254.6,87,245.1,81.2,241.9,71.3L241.9,71.3z"/>
<path class="st0" d="M479.2,19.3c-1.2-3.1-2.6-6-4.1-8.4v55.3c0,8.6,1.7,16.4,4.4,19h-10.9c2.7-2.6,4.4-10.5,4.4-19V7.5
	c-1.8-2.7-3.5-4.8-4.7-6h17.5c-2.7,2.6-0.8,9.5,2.2,18.3l16.8,48.7c0.6,1.6,1.4,3.1,2.1,4.7l24.5-71.7h12.3
	c-2.7,2.6-4.4,10.5-4.4,19v45.7c0,8.6,1.7,16.4,4.4,19h-16.6c2.7-2.6,4.4-10.5,4.4-19V7.7l-23.2,68.1c2.6,4.5,5.3,7.8,7.1,9.5h-13.3
	L479.2,19.3L479.2,19.3z"/>
<path class="st0" d="M554.4,66.3V20.6c0-8.6-1.7-16.4-4.4-19h51.7v8.2c-2.6-2.7-6.4-6.1-19-6.1H571c-8.6,0-8.8,8.4-8.8,16.9v21.5
	c2.3-4.1,6.5-5.7,12.8-5.7h3.5c8.6,0,16.4-2.8,19-5.5v13.2c-2.6-2.7-10.5-5.5-19-5.5H575c-8.6,0-12.8,3.2-12.8,13.8v13.9
	c0,8.6,0.2,16.9,8.9,16.9h10.8c13.8,0,19.5-6.2,21.8-8.9l-2.5,8.9l-0.6,2.1H550C552.7,82.7,554.4,74.9,554.4,66.3L554.4,66.3z"/>
<path class="st0" d="M613.4,66.3V20.6c0-8.6-1.7-16.4-4.4-19h16.6c-2.7,2.6-4.4,10.5-4.4,19v45.7c0,8.6,0.2,16.9,8.9,16.9h11.8
	c13.8,0,19.5-6.2,21.8-8.9l-2.5,8.9l-0.6,2.1H609C611.7,82.7,613.4,74.9,613.4,66.3L613.4,66.3z"/>
<path class="st0" d="M672.2,66.3V20.6c0-8.6-1.7-16.4-4.4-19h16.6c-2.7,2.6-4.4,10.5-4.4,19v45.7c0,8.6,1.7,16.4,4.4,19h-16.6
	C670.6,82.7,672.2,74.9,672.2,66.3z"/>
<path class="st0" d="M687.4,43.4c0-29.3,16-43.4,33.9-43.4s34.1,14.1,34.1,43.4S739.1,87,721.3,87S687.4,72.9,687.4,43.4z
	 M724.9,84.2c11.6,0,23.9-8.9,21.3-40.8c-2.6-31.8-17-40.6-28.7-40.6s-23.7,8.8-21.1,40.6C699.1,75.3,713.4,84.2,724.9,84.2z
	 M721.6,25.1c0,13.2,6.9,18.3,13.9,18.3c-7,0-13.9,5.7-13.9,18.3c0-12.7-7.4-18.3-13.9-18.3C714.2,43.4,721.6,38.3,721.6,25.1z"/>
<path class="st0" d="M73.4,85.3c-2.6-2.5-7.4-9.2-10.9-17.7l-24-66.1h-13C27.1,3,29.4,6,31.7,9.8L11.2,67C7.6,76.3,2.7,82.7,0,85.3
	h11.1C8.7,83,10,77,12.4,69.4l5.4-15l31.3,0L53.7,67l0,0c3,8.8,4.9,15.7,2.2,18.3H73.4z M18.6,52.4L33,12.1c1.1,2.2,2.3,4.6,3.3,7.1
	l12,33.1L18.6,52.4z"/>
<path class="st0" d="M369.9,85.3c-2.6-2.5-7.4-9.2-10.9-17.7L335,1.6h-13c1.6,1.5,3.9,4.4,6.2,8.3L307.7,67
	c-3.6,9.3-8.5,15.7-11.2,18.3h11.1c-2.4-2.3-1-8.3,1.4-15.9l5.4-15l31.3,0l4.6,12.7l0,0c3,8.8,4.9,15.7,2.2,18.3H369.9z M315,52.4
	l14.5-40.2c1.1,2.2,2.3,4.6,3.3,7.1l12,33.1L315,52.4z"/>
<path class="st0" d="M467.3,85.3c-2.6-2.5-7.4-9.2-10.9-17.7l-24-66.1h-13c1.6,1.5,3.9,4.4,6.2,8.3L405.1,67
	c-3.6,9.3-8.5,15.7-11.2,18.3H405c-2.4-2.3-1-8.3,1.4-15.9l5.4-15l31.3,0l4.6,12.7l0,0c3,8.8,4.9,15.7,2.2,18.3H467.3z M412.5,52.4
	L427,12.1c1.1,2.2,2.3,4.6,3.3,7.1l12,33.1L412.5,52.4z"/>
</svg>
