<?xml version="1.0" encoding="UTF-8"?>
<svg id="Layer_1" data-name="Layer 1" xmlns="http://www.w3.org/2000/svg" viewBox="0 0 300 300">
  <defs>
    <style>
      .cls-1 {
        fill: #333;
      }
    </style>
  </defs>
  <path class="cls-1" d="m260.3,54.32l-42.77-42.72c-.96-1.01-2.35-1.6-3.73-1.6h-120.69c-2.99,0-5.33,2.4-5.33,5.33v101.17c1.92-.16,3.84-.27,5.76-.27,1.65,0,3.31.05,4.91.21V20.67h101.81v45.65c0,2.93,2.4,5.33,5.33,5.33h45.65v153.01h-72.96l10.72,10.67h67.57c2.93,0,5.33-2.4,5.33-5.33V58.11c0-1.39-.59-2.77-1.6-3.79Zm-9.07,6.67h-40.32V20.67h.64l39.68,39.68v.64Z"/>
  <path class="cls-1" d="m214.7,191.38c2.93,0,5.33-2.4,5.33-5.33s-2.4-5.33-5.33-5.33h-55.15c.05.53.05,1.07.05,1.6,0,3.09-.21,6.08-.64,9.07h55.73Z"/>
  <path class="cls-1" d="m214.7,140.82h-69.76c2.67,3.31,5.01,6.88,6.99,10.67h62.77c2.93,0,5.33-2.4,5.33-5.33s-2.4-5.33-5.33-5.33Z"/>
  <path class="cls-1" d="m134.97,111.55h79.73c2.93,0,5.33-2.4,5.33-5.33s-2.4-5.33-5.33-5.33h-79.73c-2.99,0-5.33,2.4-5.33,5.33s2.35,5.33,5.33,5.33Z"/>
  <path class="cls-1" d="m134.97,71.65h32.53c2.99,0,5.33-2.4,5.33-5.33s-2.35-5.33-5.33-5.33h-32.53c-2.99,0-5.33,2.35-5.33,5.33s2.35,5.33,5.33,5.33Z"/>
  <path class="cls-1" d="m122.15,182.32c0,2.99-2.4,5.33-5.33,5.33s-5.33-2.35-5.33-5.33c0-9.87-8.05-17.92-17.97-17.92-2.93,0-5.33-2.4-5.33-5.33s2.4-5.33,5.33-5.33c15.79,0,28.64,12.8,28.64,28.59Z"/>
  <path class="cls-1" d="m199.64,261.04l-40.85-40.8c-1.97-2.03-5.55-2.03-7.52,0l-6.13,6.14-8.85-8.8c7.89-9.6,12.64-21.86,12.64-35.25,0-30.56-24.85-55.41-55.41-55.41s-55.41,24.85-55.41,55.41,24.85,55.47,55.41,55.47c13.39,0,25.65-4.8,35.25-12.69l8.8,8.85-6.13,6.13c-2.08,2.08-2.08,5.44,0,7.52l40.8,40.85c1.01.96,2.35,1.55,3.79,1.55s2.77-.59,3.79-1.55l19.84-19.84c2.08-2.08,2.08-5.49,0-7.57Zm-106.13-33.92c-24.69,0-44.75-20.1-44.75-44.8s20.05-44.75,44.75-44.75,44.75,20.11,44.75,44.75-20.05,44.8-44.75,44.8Zm82.51,50.03l-33.28-33.28,12.32-12.32,33.23,33.28-12.27,12.32Z"/>
</svg>