<?xml version="1.0" encoding="UTF-8"?>
<svg id="Layer_1" data-name="Layer 1" xmlns="http://www.w3.org/2000/svg" viewBox="0 0 300 300">
  <defs>
    <style>
      .cls-1 {
        fill: #66bb6a;
      }

      .cls-2 {
        fill: #e57373;
      }

      .cls-3 {
        fill: #ef9a9a;
      }

      .cls-4 {
        fill: #fff9c4;
      }

      .cls-5 {
        fill: #fff;
      }

      .cls-6 {
        fill: #fff176;
      }

      .cls-7 {
        fill: #ffee58;
      }

      .cls-8 {
        fill: #fff59d;
      }

      .cls-9 {
        fill: #ef5350;
      }

      .cls-10 {
        fill: #ffcdd2;
      }

      .cls-11 {
        fill: #ffab91;
      }

      .cls-12 {
        fill: #ffccbc;
      }

      .cls-13 {
        fill: #ff8a65;
      }

      .cls-14 {
        fill: #ff7043;
      }

      .cls-15 {
        fill: #90caf9;
      }

      .cls-16 {
        fill: #64b5f6;
      }

      .cls-17 {
        fill: #80cbc4;
      }

      .cls-18 {
        fill: #ba68c8;
      }

      .cls-19 {
        fill: #ce93d8;
      }

      .cls-20 {
        fill: #b2dfdb;
      }

      .cls-21 {
        fill: #ab47bc;
      }

      .cls-22 {
        fill: #bbdefb;
      }

      .cls-23 {
        fill: #a5d6a7;
      }

      .cls-24 {
        fill: #ccd1d9;
      }

      .cls-25 {
        fill: #e1bee7;
      }

      .cls-26 {
        fill: #c8e6c9;
      }

      .cls-27 {
        fill: #42a5f5;
      }

      .cls-28 {
        fill: #26a69a;
      }

      .cls-29 {
        fill: #4db6ac;
      }

      .cls-30 {
        fill: #81c784;
      }
    </style>
  </defs>
  <path class="cls-5" d="m143.47,184.33h138.82c4.26,0,7.71,3.46,7.71,7.71v32.13c0,4.26-3.46,7.71-7.71,7.71h-138.82c-4.26,0-7.71-3.46-7.71-7.71v-32.14c0-4.26,3.46-7.71,7.71-7.71Z"/>
  <g>
    <rect class="cls-21" x="161.68" y="188.72" width="27.42" height="38.78"/>
    <rect class="cls-18" x="191.81" y="188.72" width="27.42" height="38.78"/>
    <rect class="cls-19" x="221.95" y="188.72" width="27.42" height="38.78"/>
    <rect class="cls-25" x="252.08" y="188.72" width="27.42" height="38.78"/>
  </g>
  <path class="cls-5" d="m279.28,152.03l-16.07-27.83c-2.13-3.69-6.85-4.95-10.53-2.82l-120.22,69.41c-3.69,2.13-4.95,6.85-2.82,10.53l16.07,27.83c.67,1.17,1.61,2.09,2.68,2.74h7.99s120.08-69.33,120.08-69.33c3.69-2.13,4.95-6.85,2.82-10.53Z"/>
  <g>
    <rect class="cls-27" x="158.28" y="176.03" width="27.42" height="38.77" transform="translate(-74.67 112.2) rotate(-30.01)"/>
    <rect class="cls-16" x="184.37" y="160.96" width="27.42" height="38.77" transform="translate(-63.63 123.2) rotate(-30)"/>
    <rect class="cls-15" x="210.47" y="145.89" width="27.42" height="38.77" transform="translate(-52.6 134.23) rotate(-30)"/>
    <rect class="cls-22" x="236.57" y="130.83" width="27.42" height="38.77" transform="translate(-41.58 145.28) rotate(-30)"/>
  </g>
  <path class="cls-5" d="m236.74,105.43l-69.41,120.22c-2.13,3.69-6.85,4.95-10.54,2.82l-27.83-16.07c-3.69-2.13-4.95-6.85-2.82-10.53l69.41-120.22c2.13-3.69,6.84-4.95,10.53-2.82l27.83,16.07c3.69,2.13,4.95,6.84,2.82,10.53Z"/>
  <g>
    <rect class="cls-28" x="148.98" y="166.74" width="27.42" height="38.77" transform="translate(-79.84 233.97) rotate(-60)"/>
    <rect class="cls-29" x="164.05" y="140.64" width="27.42" height="38.77" transform="translate(-49.71 233.96) rotate(-60)"/>
    <rect class="cls-17" x="179.12" y="114.54" width="27.42" height="38.77" transform="translate(-19.57 233.96) rotate(-60)"/>
    <rect class="cls-20" x="194.19" y="88.44" width="27.42" height="38.77" transform="translate(10.56 233.96) rotate(-60)"/>
  </g>
  <path class="cls-5" d="m173.78,75.82v138.82c0,4.26-3.45,7.71-7.71,7.71h-32.14c-4.26,0-7.71-3.45-7.71-7.71V75.82c0-4.26,3.45-7.71,7.71-7.71h32.14c4.26,0,7.71,3.45,7.71,7.71Z"/>
  <g>
    <rect class="cls-1" x="130.61" y="169.01" width="38.77" height="27.42"/>
    <rect class="cls-30" x="130.61" y="138.88" width="38.77" height="27.42"/>
    <rect class="cls-23" x="130.61" y="108.74" width="38.77" height="27.42"/>
    <rect class="cls-26" x="130.61" y="78.61" width="38.77" height="27.42"/>
  </g>
  <path class="cls-5" d="m104.45,81.65l69.41,120.22c2.13,3.69.87,8.41-2.82,10.54l-27.83,16.06c-3.69,2.13-8.41.87-10.53-2.82L63.26,105.43c-2.13-3.69-.86-8.4,2.82-10.53l27.83-16.07c3.69-2.13,8.4-.87,10.53,2.82Z"/>
  <g>
    <rect class="cls-7" x="117.92" y="172.41" width="38.77" height="27.42" transform="translate(-74.67 93.6) rotate(-30)"/>
    <rect class="cls-6" x="102.85" y="146.32" width="38.77" height="27.42" transform="translate(-63.64 82.56) rotate(-30)"/>
    <rect class="cls-8" x="87.78" y="120.22" width="38.77" height="27.42" transform="translate(-52.61 71.54) rotate(-30)"/>
    <rect class="cls-4" x="72.72" y="94.12" width="38.77" height="27.42" transform="translate(-41.58 60.5) rotate(-30)"/>
  </g>
  <path class="cls-5" d="m154.3,229.15l16.07-27.83c2.13-3.69.86-8.41-2.83-10.54L47.32,121.37c-3.69-2.13-8.4-.86-10.53,2.82l-16.07,27.83c-2.13,3.69-.87,8.41,2.82,10.53l120.08,69.33h7.99c1.08-.65,2.01-1.57,2.68-2.74Z"/>
  <path class="cls-5" d="m157.07,208.11c0,3.9-3.17,7.07-7.07,7.07s-7.07-3.17-7.07-7.07,3.17-7.07,7.07-7.07,7.07,3.17,7.07,7.07Z"/>
  <path class="cls-5" d="m156.13,204.58c1.95,3.38.79,7.7-2.59,9.66-3.38,1.95-7.71.79-9.66-2.59-1.95-3.38-.79-7.7,2.59-9.66,3.38-1.95,7.71-.79,9.66,2.59Z"/>
  <path class="cls-5" d="m153.54,201.99c3.38,1.95,4.54,6.28,2.59,9.66-1.95,3.38-6.28,4.54-9.66,2.59-3.38-1.95-4.54-6.27-2.59-9.65,1.95-3.38,6.28-4.54,9.66-2.59Z"/>
  <path class="cls-5" d="m150,201.04c3.9,0,7.07,3.17,7.07,7.07s-3.17,7.07-7.07,7.07-7.07-3.16-7.07-7.07c0-3.91,3.17-7.07,7.07-7.07Z"/>
  <path class="cls-5" d="m146.47,201.98c3.38-1.95,7.7-.79,9.66,2.59,1.95,3.38.79,7.7-2.59,9.65-3.38,1.95-7.7.79-9.66-2.59-1.95-3.38-.79-7.71,2.59-9.66Z"/>
  <path class="cls-5" d="m143.88,204.57c1.95-3.38,6.28-4.54,9.66-2.59,3.38,1.95,4.53,6.27,2.58,9.66-1.95,3.38-6.27,4.54-9.65,2.59-3.38-1.95-4.54-6.28-2.59-9.66Z"/>
  <g>
    <rect class="cls-11" x="56.43" y="151.57" width="38.78" height="27.42" transform="translate(-105.23 148.31) rotate(-60)"/>
    <rect class="cls-12" x="30.34" y="136.51" width="38.77" height="27.42" transform="translate(-105.23 118.18) rotate(-60)"/>
    <rect class="cls-14" x="108.63" y="181.71" width="38.77" height="27.42" transform="translate(-105.23 208.58) rotate(-60)"/>
    <rect class="cls-13" x="82.53" y="166.64" width="38.77" height="27.42" transform="translate(-105.23 178.45) rotate(-60)"/>
  </g>
  <path class="cls-5" d="m17.71,184.33h138.82c4.26,0,7.72,3.45,7.72,7.71v32.14c0,4.26-3.45,7.71-7.72,7.71H17.71c-4.26,0-7.71-3.45-7.71-7.71v-32.13c0-4.26,3.45-7.71,7.71-7.71Z"/>
  <g>
    <rect class="cls-9" x="110.9" y="188.72" width="27.42" height="38.77"/>
    <rect class="cls-2" x="80.77" y="188.72" width="27.42" height="38.78"/>
    <rect class="cls-3" x="50.63" y="188.72" width="27.42" height="38.78"/>
    <rect class="cls-10" x="20.5" y="188.72" width="27.42" height="38.77"/>
  </g>
  <path class="cls-24" d="m142.93,208.11c0-3.9,3.17-7.07,7.07-7.07,3.9,0,7.06,3.17,7.06,7.07,0,3.91-3.16,7.07-7.07,7.07s-7.07-3.16-7.07-7.07Z"/>
</svg>