<?xml version="1.0" encoding="UTF-8"?>
<svg id="Layer_1" data-name="Layer 1" xmlns="http://www.w3.org/2000/svg" viewBox="0 0 300 300">
  <defs>
    <style>
      .cls-1 {
        fill: #333;
      }
    </style>
  </defs>
  <path class="cls-1" d="m199.93,109.96l-31.99-3.57-13.31-29.31c-.82-1.82-2.63-2.99-4.62-3-1.9.06-3.86,1.26-4.64,2.98l-13.29,29.33-32,3.57c-1.87.21-3.69,1.69-4.27,3.48-.58,1.79.02,4.06,1.41,5.33l23.77,21.74-6.46,31.55c-.39,1.95.4,3.95,2,5.11,1.52,1.1,3.85,1.23,5.49.3l27.99-15.89,28.01,15.9c.78.44,1.64.66,2.5.66,1.06,0,2.11-.33,2.99-.97,1.52-1.11,2.36-3.28,1.98-5.12l-6.47-31.53,23.79-21.75c1.47-1.34,2.02-3.43,1.4-5.32-.58-1.79-2.4-3.27-4.27-3.48Zm-96.25,1.73s0,0,0,0c0,0,0,0,.01.01h-.01Zm66.85,23.58c-1.25,1.14-1.8,2.85-1.46,4.5l5.02,24.45-21.72-12.33c-1.47-.83-3.27-.83-4.74,0l-21.72,12.33,5.01-24.46c.34-1.65-.22-3.36-1.46-4.5l-18.45-16.87,24.84-2.78c1.68-.19,3.14-1.25,3.84-2.78l10.32-22.75,10.33,22.76c.7,1.54,2.16,2.59,3.84,2.78l24.82,2.77-18.46,16.87Z"/>
  <path class="cls-1" d="m208.52,68.66c-17.37-16.32-40.08-24.49-63.98-23-42.86,2.64-77.19,36.98-79.87,79.86-1.69,27.08,9.13,52.72,29.69,70.34,13.24,11.36,20.83,28.24,20.83,46.31v21.08c0,2.65,2.15,4.8,4.8,4.8h1.64c.99,10.91,4.93,26.92,28.38,26.92s27.38-16.02,28.37-26.92h1.64c2.65,0,4.8-2.15,4.8-4.8v-21.41c0-17.51,7.96-34.59,21.84-46.87,18.32-16.2,28.83-39.52,28.83-63.99s-9.83-46.23-26.97-62.33Zm-58.52,216.73c-13.42,0-17.39-5.61-18.71-17.33h37.41c-1.31,11.72-5.28,17.33-18.71,17.33Zm25.22-43.54v16.62h-50.44v-16.28c0-1.6-.15-3.17-.25-4.75h50.94c-.1,1.47-.25,2.94-.25,4.41Zm25.08-54.05c-12.22,10.81-20.4,24.92-23.58,40.05h-53.41c-3.06-15.3-10.94-29.14-22.71-39.25-18.25-15.66-27.86-38.42-26.36-62.47,2.37-38.07,32.85-68.54,70.89-70.89,21.22-1.32,41.39,5.93,56.82,20.41,15.44,14.51,23.94,34.16,23.94,55.34s-9.33,42.42-25.59,56.8Z"/>
  <path class="cls-1" d="m63.99,193.46l-11.72,9.35c-2.07,1.65-2.41,4.67-.76,6.74.95,1.19,2.34,1.81,3.75,1.81,1.05,0,2.1-.34,2.99-1.05l11.72-9.35c2.07-1.65,2.41-4.67.76-6.74-1.65-2.07-4.67-2.41-6.74-.76Z"/>
  <path class="cls-1" d="m51.15,153.56c-.59-2.58-3.16-4.2-5.74-3.61l-14.62,3.34c-2.58.59-4.2,3.16-3.61,5.74.51,2.22,2.48,3.73,4.67,3.73.35,0,.71-.04,1.07-.12l14.62-3.34c2.58-.59,4.2-3.16,3.61-5.74Z"/>
  <path class="cls-1" d="m30.79,108.71l14.62,3.34c.36.08.72.12,1.07.12,2.19,0,4.16-1.51,4.67-3.73.59-2.58-1.03-5.15-3.61-5.74l-14.62-3.33c-2.57-.59-5.15,1.03-5.74,3.61-.59,2.58,1.03,5.15,3.61,5.74Z"/>
  <path class="cls-1" d="m63.99,68.54c.88.71,1.94,1.05,2.99,1.05,1.41,0,2.81-.62,3.75-1.81,1.65-2.07,1.31-5.09-.76-6.74l-11.72-9.35c-2.07-1.65-5.09-1.31-6.74.76-1.65,2.07-1.31,5.09.76,6.74l11.72,9.35Z"/>
  <path class="cls-1" d="m99.6,37.4c.83,1.72,2.54,2.72,4.32,2.72.7,0,1.41-.15,2.08-.48,2.39-1.15,3.39-4.02,2.24-6.4l-6.51-13.51c-1.15-2.39-4.01-3.39-6.4-2.24-2.39,1.15-3.39,4.02-2.24,6.4l6.51,13.51Z"/>
  <path class="cls-1" d="m150,29.6c2.65,0,4.8-2.15,4.8-4.8v-15c0-2.65-2.15-4.8-4.8-4.8s-4.8,2.15-4.8,4.8v15c0,2.65,2.15,4.8,4.8,4.8Z"/>
  <path class="cls-1" d="m193.99,39.64c.67.32,1.38.48,2.08.48,1.78,0,3.5-1,4.32-2.72l6.5-13.51c1.15-2.39.15-5.25-2.24-6.4-2.39-1.15-5.25-.15-6.4,2.24l-6.5,13.51c-1.15,2.38-.15,5.25,2.24,6.4Z"/>
  <path class="cls-1" d="m233.02,69.58c1.05,0,2.1-.34,2.99-1.04l11.72-9.35c2.07-1.65,2.41-4.67.76-6.74-1.65-2.07-4.67-2.41-6.74-.76l-11.72,9.35c-2.07,1.65-2.41,4.67-.76,6.74.95,1.18,2.34,1.8,3.75,1.8Z"/>
  <path class="cls-1" d="m248.85,108.43c.51,2.22,2.48,3.73,4.67,3.73.35,0,.71-.04,1.07-.12l14.62-3.34c2.58-.59,4.2-3.16,3.61-5.74-.59-2.58-3.16-4.2-5.74-3.61l-14.62,3.34c-2.58.59-4.2,3.16-3.61,5.74Z"/>
  <path class="cls-1" d="m269.21,153.28l-14.62-3.34c-2.57-.59-5.15,1.03-5.74,3.61-.59,2.58,1.03,5.15,3.61,5.74l14.62,3.34c.36.08.72.12,1.07.12,2.19,0,4.16-1.51,4.67-3.73.59-2.58-1.03-5.15-3.61-5.74Z"/>
  <path class="cls-1" d="m236.01,193.45c-2.07-1.65-5.09-1.31-6.74.76-1.65,2.07-1.31,5.09.76,6.74l11.72,9.35c.88.7,1.94,1.05,2.99,1.05,1.41,0,2.81-.62,3.75-1.81,1.65-2.07,1.31-5.09-.76-6.74l-11.72-9.35Z"/>
</svg>