<?xml version="1.0" encoding="UTF-8"?>
<svg id="Layer_1" data-name="Layer 1" xmlns="http://www.w3.org/2000/svg" viewBox="0 0 90 90">
  <defs>
    <style>
      .cls-1 {
        fill: #e94869;
      }

      .cls-2 {
        fill: #43091f;
      }
    </style>
  </defs>
  <path class="cls-2" d="m73.84,90H16.16c-8.93,0-16.16-7.41-16.16-16.54V16.55C0,7.41,7.24,0,16.16,0h57.67c8.93,0,16.16,7.41,16.16,16.55v56.91c0,9.14-7.24,16.54-16.16,16.54h0Z"/>
  <g>
    <rect class="cls-1" x="23.8" y="26.45" width="8.61" height="40.78"/>
    <path class="cls-1" d="m57.59,22.77v12.5h-5.26c-7.38,0-13.37,6.13-13.37,13.69v4.6c0,7.56,5.98,13.69,13.37,13.69h5.26s8.52-.67,8.61-3.29V22.77h-8.61Zm0,37.2h-3.21c-4.03,0-7.29-3.34-7.29-7.46v-2.51c0-4.12,3.26-7.46,7.29-7.46h3.21v17.44h0Z"/>
  </g>
</svg>