<?xml version="1.0" encoding="UTF-8"?>
<svg id="Layer_1" data-name="Layer 1" xmlns="http://www.w3.org/2000/svg" viewBox="0 0 300 300">
  <defs>
    <style>
      .cls-1 {
        fill: #333;
      }
    </style>
  </defs>
  <path class="cls-1" d="m122.72,69.21c.85,1.48,2.4,2.3,3.99,2.3.78,0,1.57-.2,2.29-.62,2.2-1.27,2.95-4.08,1.68-6.28l-10.8-18.7c-1.27-2.2-4.08-2.95-6.28-1.68-2.2,1.27-2.95,4.08-1.68,6.28l10.8,18.7Z"/>
  <path class="cls-1" d="m150,65.27c2.54,0,4.6-2.06,4.6-4.6v-21.6c0-2.54-2.06-4.6-4.6-4.6s-4.6,2.06-4.6,4.6v21.6c0,2.54,2.06,4.6,4.6,4.6Z"/>
  <path class="cls-1" d="m170.99,70.9c.72.42,1.51.62,2.29.62,1.59,0,3.14-.82,3.99-2.3l10.8-18.7c1.27-2.2.52-5.01-1.68-6.28-2.2-1.27-5.01-.52-6.28,1.68l-10.8,18.7c-1.27,2.2-.52,5.01,1.68,6.28Z"/>
  <path class="cls-1" d="m41.06,201.48c0-2.54-2.06-4.6-4.6-4.6s-4.6,2.06-4.6,4.6v15.23h-12.67v-9.75c0-24.83,20.14-44.96,44.92-44.96,10.11,0,19.4,3.31,26.94,8.96,1.84-2.44,3.86-4.78,6.02-6.94-4.27-3.3-9.07-5.94-14.22-7.85,9.2-6.1,15.29-16.53,15.29-28.37,0-18.76-15.26-34.02-34.02-34.02s-34.02,15.26-34.02,34.02c0,11.85,6.1,22.3,15.32,28.39-20.65,7.63-35.44,27.47-35.44,50.77v14.35c0,2.57,2.02,4.6,4.6,4.6h61.19v-9.2h-34.73v-15.23Zm-1.75-73.67c0-13.69,11.14-24.82,24.82-24.82s24.82,11.14,24.82,24.82-11.14,24.82-24.82,24.82-24.82-11.14-24.82-24.82Z"/>
  <path class="cls-1" d="m254.54,156.2c9.22-6.09,15.33-16.54,15.33-28.39,0-18.76-15.26-34.02-34.02-34.02s-34.02,15.26-34.02,34.02c0,11.84,6.09,22.27,15.29,28.37-5.15,1.91-9.94,4.55-14.21,7.85,2.16,2.16,4.18,4.46,6.02,6.9,7.54-5.61,16.83-8.92,26.9-8.92,24.83,0,44.97,20.14,44.97,44.96v9.75h-12.68v-15.23c0-2.54-2.06-4.6-4.6-4.6s-4.6,2.06-4.6,4.6v15.23h-34.72v9.2h61.2c2.57,0,4.6-2.02,4.6-4.6v-14.35c0-23.3-14.79-43.13-35.46-50.77Zm-43.51-28.39c0-13.69,11.14-24.82,24.82-24.82s24.82,11.14,24.82,24.82-11.14,24.82-24.82,24.82-24.82-11.14-24.82-24.82Z"/>
  <path class="cls-1" d="m170.46,154.32c11.95-7.04,20-20,20-34.85,0-22.3-18.16-40.46-40.46-40.46s-40.46,18.16-40.46,40.46c0,14.85,8.05,27.82,19.95,34.85-25.84,8.6-44.51,32.97-44.51,61.65v17.52c0,2.53,2.07,4.6,4.6,4.6h25.84l-10.07-9.2h-11.17v-12.92c0-30.8,25.06-55.82,55.82-55.82s55.82,25.01,55.82,55.82v12.92h-11.17l-10.07,9.2h25.84c2.53,0,4.6-2.07,4.6-4.6v-17.52c0-28.69-18.71-53.06-44.55-61.65Zm-51.72-34.85c0-17.24,14.02-31.27,31.26-31.27s31.27,14.02,31.27,31.27-14.02,31.26-31.27,31.26-31.26-14.02-31.26-31.26Z"/>
  <path class="cls-1" d="m192.9,214.19c-.55-1.7-2.25-3.08-4.05-3.31l-24.37-2.71-10.11-22.3c-.74-1.61-2.57-2.8-4.37-2.8s-3.68,1.19-4.41,2.8l-10.11,22.3-24.32,2.71c-1.79.23-3.5,1.61-4.05,3.31-.55,1.75,0,3.86,1.33,5.06l18.07,16.55-4.92,23.95c-.32,1.79.46,3.82,1.89,4.87,1.47,1.06,3.68,1.2,5.24.28l21.29-12.05,21.29,12.09c.69.37,1.52.55,2.34.55,1.06,0,2.07-.28,2.9-.87,1.43-1.06,2.21-3.08,1.84-4.87l-4.92-23.95,18.11-16.55c1.33-1.19,1.89-3.31,1.33-5.06Zm-27.59,16.55c-1.2,1.1-1.7,2.76-1.38,4.32l3.49,17.1-15.17-8.6c-1.38-.83-3.13-.83-4.55,0l-15.17,8.6,3.49-17.1c.37-1.56-.18-3.22-1.38-4.32l-12.87-11.77,17.33-1.93c1.61-.18,2.99-1.2,3.68-2.67l7.22-15.91,7.22,15.91c.64,1.47,2.07,2.48,3.68,2.67l17.33,1.93-12.92,11.77Z"/>
</svg>