<?xml version="1.0" encoding="UTF-8"?>
<svg id="Layer_1" data-name="Layer 1" xmlns="http://www.w3.org/2000/svg" viewBox="0 0 300 300">
  <defs>
    <style>
      .cls-1 {
        fill: #0278d3;
      }

      .cls-2 {
        fill: #0263b8;
      }

      .cls-3 {
        fill: #0263bb;
      }

      .cls-4 {
        fill: #0077d0;
      }

      .cls-5 {
        fill: #fff;
      }

      .cls-6 {
        fill: #057acc;
      }

      .cls-7 {
        fill: #0674cc;
      }

      .cls-8 {
        fill: #0674cf;
      }

      .cls-9 {
        fill: #06296f;
      }

      .cls-10 {
        fill: #1a8fdd;
      }

      .cls-11 {
        fill: #29a7ee;
      }

      .cls-12 {
        fill: #2aa6eb;
      }

      .cls-13 {
        fill: #2ba7e5;
      }

      .cls-14 {
        fill: #50d4ff;
      }

      .cls-15 {
        opacity: .2;
      }
    </style>
  </defs>
  <path class="cls-2" d="m121.84,26.3h126.28c13.74,0,24.89,11.15,24.89,24.89H96.95c0-13.74,11.15-24.89,24.89-24.89Z"/>
  <path class="cls-9" d="m290,155v109.01c0,3.05-1.4,5.81-3.63,7.56-1.65,1.35-3.73,2.13-6.05,2.13H89.75c-2.28,0-4.36-.78-6.05-2.13-2.23-1.74-3.63-4.5-3.63-7.56v-109.01c0-1.7.44-3.29,1.21-4.7v-.05c.82-1.4,1.94-2.62,3.39-3.49l95.31-58.84c3.1-1.94,7.02-1.94,10.17,0l95.26,58.84c1.4.87,2.57,2.08,3.39,3.49v.05c.77,1.4,1.21,3,1.21,4.7Z"/>
  <rect class="cls-14" x="96.95" y="51.19" width="176.06" height="54.52"/>
  <rect class="cls-12" x="96.95" y="105.71" width="176.06" height="54.52"/>
  <rect class="cls-6" x="96.95" y="160.22" width="176.06" height="54.52"/>
  <rect class="cls-11" x="96.95" y="51.19" width="121.53" height="54.52"/>
  <rect class="cls-4" x="96.95" y="105.71" width="121.53" height="54.52"/>
  <rect class="cls-3" x="96.95" y="160.22" width="121.53" height="54.52"/>
  <rect class="cls-8" x="96.95" y="51.19" width="60.77" height="54.52"/>
  <rect class="cls-7" x="96.95" y="105.71" width="60.77" height="54.52"/>
  <rect class="cls-3" x="96.95" y="160.22" width="60.77" height="54.52"/>
  <path class="cls-10" d="m290,155v109.01c0,3.05-1.4,5.81-3.63,7.56-1.65,1.35-3.73,2.13-6.05,2.13H89.75c-2.28,0-4.36-.78-6.05-2.13l205.1-121.27c.77,1.4,1.21,3,1.21,4.7Z"/>
  <path class="cls-13" d="m286.37,271.57c-1.65,1.35-3.73,2.13-6.05,2.13H89.75c-5.37,0-9.69-4.36-9.69-9.69v-114.44l1.21.68v.05l205.1,121.27Z"/>
  <rect class="cls-15" x="16.66" y="86.2" width="140.1" height="140.1" rx="27.59" ry="27.59"/>
  <rect class="cls-1" x="10" y="79.54" width="140.1" height="140.1" rx="27.59" ry="27.59"/>
  <path class="cls-5" d="m35.43,150.15c0-9.37,1.4-17.24,4.2-23.59,2.09-4.69,4.95-8.89,8.56-12.61,3.62-3.72,7.58-6.48,11.89-8.28,5.73-2.43,12.34-3.64,19.83-3.64,13.55,0,24.4,4.2,32.54,12.61,8.14,8.41,12.21,20.1,12.21,35.08s-4.04,26.47-12.11,34.86c-8.07,8.39-18.87,12.58-32.38,12.58s-24.56-4.17-32.63-12.52c-8.07-8.35-12.11-19.84-12.11-34.48Zm19.14-.63c0,10.42,2.41,18.31,7.22,23.69,4.81,5.38,10.92,8.06,18.32,8.06s13.48-2.67,18.23-8c4.75-5.33,7.12-13.33,7.12-24s-2.31-18.41-6.94-23.59c-4.62-5.19-10.76-7.78-18.42-7.78s-13.83,2.63-18.51,7.88c-4.69,5.25-7.03,13.17-7.03,23.75Z"/>
</svg>