<?xml version="1.0" encoding="UTF-8"?>
<svg id="Layer_1" data-name="Layer 1" xmlns="http://www.w3.org/2000/svg" viewBox="0 0 300 300">
  <defs>
    <style>
      .cls-1 {
        fill: #bcc3f4;
      }

      .cls-2 {
        fill: #213551;
      }

      .cls-3 {
        fill: #0d1520;
      }

      .cls-4 {
        fill: #142131;
      }

      .cls-5 {
        fill: #365685;
      }

      .cls-6 {
        fill: #2b4469;
      }

      .cls-7 {
        fill: #fff;
        opacity: .2;
      }
    </style>
  </defs>
  <circle class="cls-4" cx="42.04" cy="77.07" r="7.59"/>
  <g>
    <rect class="cls-4" x="162.36" y="49.52" width="50.76" height="10.59"/>
    <path class="cls-2" d="m89.26,76.86s111.24-14.32,187.31,4.86c3.51.89,6.37,3.44,7.65,6.83l5.78,15.21H10l10.99-20.54s3.76-7.81,13.88-8.68c10.12-.87,44.55-4.05,49.46-.87l4.92,3.18Z"/>
    <g>
      <path class="cls-6" d="m284.22,88.55c-1.29-3.39-4.14-5.94-7.65-6.83-13.24-3.34-27.54-5.66-42.14-7.22l-92.65-1.9c-30.8,1.47-52.52,4.26-52.52,4.26l-4.92-3.18c-4.92-3.18-39.34,0-49.46.87-10.12.87-13.88,8.68-13.88,8.68l-10.99,20.54h280l-5.78-15.21Z"/>
      <path class="cls-5" d="m89.26,76.86c-.68-.44-2.75-1.78-4.92-3.18-4.92-3.18-39.34,0-49.46.87-10.12.87-13.88,8.68-13.88,8.68l-10.99,20.54h83.01l-3.75-26.9Z"/>
      <path class="cls-4" d="m245.18,103.28l-10.75-28.78c-32.22-3.45-65.87-3.18-92.65-1.9l-11.46,30.68h114.86Z"/>
    </g>
    <path class="cls-5" d="m237.48,96.64h-99.46l13.71-36.71c1.41-3.78,4.55-6.21,8.02-6.21h55.99c3.47,0,6.61,2.43,8.02,6.21l13.71,36.71Z"/>
    <g>
      <path class="cls-4" d="m89.26,103.76s-26.03.14-26.03,30.81v109.34l216.08.41c5.9.01,10.7-4.77,10.7-10.68V103.76H89.26Z"/>
      <path class="cls-6" d="m63.22,134.56c0-30.66,26.03-30.81,26.03-30.81H10v129.47c0,5.9,4.78,10.68,10.68,10.68h42.55v-109.34Z"/>
    </g>
    <circle class="cls-4" cx="61.78" cy="85.1" r="7.81"/>
    <g>
      <g>
        <path class="cls-4" d="m274.02,162.83c0,47.59-38.62,86.18-86.28,86.18s-86.28-38.59-86.28-86.18,38.62-86.18,86.28-86.18,86.28,38.59,86.28,86.18Z"/>
        <path class="cls-1" d="m187.75,250.48c-48.39,0-87.75-39.32-87.75-87.65s39.36-87.65,87.75-87.65,87.75,39.32,87.75,87.65-39.36,87.65-87.75,87.65Zm0-172.36c-46.76,0-84.81,38-84.81,84.71s38.05,84.71,84.81,84.71,84.81-38,84.81-84.71-38.04-84.71-84.81-84.71Z"/>
      </g>
      <g>
        <path class="cls-6" d="m264.13,162.83c0,42.06-34.2,76.15-76.39,76.15s-76.39-34.09-76.39-76.15,34.2-76.15,76.39-76.15,76.39,34.09,76.39,76.15Z"/>
        <path class="cls-4" d="m187.75,240.45c-42.93,0-77.86-34.82-77.86-77.62s34.93-77.62,77.86-77.62,77.86,34.82,77.86,77.62-34.93,77.62-77.86,77.62Zm0-152.3c-41.31,0-74.92,33.5-74.92,74.68s33.61,74.68,74.92,74.68,74.92-33.5,74.92-74.68-33.61-74.68-74.92-74.68Z"/>
      </g>
      <g>
        <path class="cls-6" d="m256.18,162.83c0,37.6-30.65,68.07-68.43,68.07s-68.44-30.47-68.44-68.07,30.65-68.07,68.44-68.07,68.43,30.47,68.43,68.07Z"/>
        <path class="cls-3" d="m187.75,232.37c-38.55,0-69.91-31.2-69.91-69.54s31.36-69.54,69.91-69.54,69.9,31.2,69.9,69.54-31.36,69.54-69.9,69.54Zm0-136.14c-36.93,0-66.97,29.88-66.97,66.6s30.04,66.6,66.97,66.6,66.96-29.88,66.96-66.6-30.04-66.6-66.96-66.6Z"/>
      </g>
      <g>
        <ellipse class="cls-6" cx="187.75" cy="162.83" rx="60.03" ry="59.55"/>
        <path class="cls-4" d="m187.75,226.54c-35.4,0-64.19-28.58-64.19-63.71s28.8-63.71,64.19-63.71,64.19,28.58,64.19,63.71-28.8,63.71-64.19,63.71Zm0-119.09c-30.8,0-55.86,24.84-55.86,55.38s25.06,55.38,55.86,55.38,55.86-24.84,55.86-55.38-25.06-55.38-55.86-55.38Z"/>
      </g>
      <g>
        <path class="cls-3" d="m233.9,162.83c0,24.81-20.67,44.88-46.15,44.88s-46.15-20.07-46.15-44.88,20.68-44.89,46.15-44.89,46.15,20.08,46.15,44.89Z"/>
        <path class="cls-1" d="m187.75,208.44c-25.85,0-46.89-20.46-46.89-45.62s21.03-45.63,46.89-45.63,46.89,20.47,46.89,45.63-21.03,45.62-46.89,45.62Zm0-89.78c-25.04,0-45.42,19.81-45.42,44.16s20.37,44.15,45.42,44.15,45.42-19.8,45.42-44.15-20.37-44.16-45.42-44.16Z"/>
      </g>
      <path class="cls-4" d="m187.75,199.85c-20.24,0-36.7-16.61-36.7-37.02s16.46-37.04,36.7-37.04,36.7,16.62,36.7,37.04-16.46,37.02-36.7,37.02Zm0-58.87c-11.86,0-21.51,9.8-21.51,21.85s9.65,21.83,21.51,21.83,21.51-9.79,21.51-21.83-9.65-21.85-21.51-21.85Z"/>
      <path class="cls-4" d="m187.75,182.22c-10.71,0-19.43-8.7-19.43-19.39s8.71-19.41,19.43-19.41,19.42,8.71,19.42,19.41-8.71,19.39-19.42,19.39Zm0-26.49c-3.93,0-7.13,3.19-7.13,7.11s3.2,7.07,7.13,7.07,7.12-3.17,7.12-7.07-3.2-7.11-7.12-7.11Z"/>
      <path class="cls-7" d="m207.1,154.36c15.04-5,30.31-9.15,45.69-12.71-8.95-27.22-34.69-46.89-65.05-46.89-37.79,0-68.44,30.47-68.44,68.07,0,9.02,1.77,17.62,4.96,25.5,27.29-12.11,54.5-24.55,82.83-33.97Z"/>
    </g>
  </g>
</svg>