<?xml version="1.0" encoding="UTF-8"?>
<svg id="Layer_1" data-name="Layer 1" xmlns="http://www.w3.org/2000/svg" viewBox="0 0 300 300">
  <defs>
    <style>
      .cls-1 {
        fill: #fff;
      }

      .cls-2 {
        fill: #ee6b47;
      }

      .cls-3 {
        fill: #ff8e6b;
      }

      .cls-4 {
        fill: #c94826;
      }

      .cls-5 {
        fill: #d35130;
      }

      .cls-6 {
        opacity: .2;
      }
    </style>
  </defs>
  <path class="cls-2" d="m167.39,27.39c-67.72,0-122.61,54.89-122.61,122.61h122.61V27.39Z"/>
  <path class="cls-3" d="m167.39,27.39v122.61h122.61c0-67.71-54.89-122.61-122.61-122.61Z"/>
  <path class="cls-5" d="m44.78,150c0,67.71,54.89,122.61,122.61,122.61s122.61-54.9,122.61-122.61H44.78Z"/>
  <rect class="cls-6" x="17.58" y="88.05" width="139.06" height="139.06" rx="31.3" ry="31.3"/>
  <rect class="cls-4" x="10" y="80.47" width="139.06" height="139.06" rx="31.3" ry="31.3"/>
  <path class="cls-1" d="m49.7,188.95v-77.9h25.24c9.56,0,15.8.39,18.7,1.17,4.46,1.17,8.2,3.71,11.21,7.62,3.01,3.91,4.52,8.97,4.52,15.17,0,4.78-.87,8.8-2.6,12.06-1.74,3.26-3.94,5.82-6.62,7.68-2.67,1.86-5.39,3.09-8.15,3.69-3.75.74-9.19,1.12-16.31,1.12h-10.25v29.38h-15.73Zm15.73-64.72v22.1h8.61c6.2,0,10.34-.41,12.43-1.22,2.09-.81,3.73-2.09,4.92-3.83,1.18-1.74,1.78-3.75,1.78-6.06,0-2.83-.83-5.17-2.5-7.01-1.66-1.84-3.77-2.99-6.32-3.45-1.88-.35-5.65-.53-11.32-.53h-7.6Z"/>
</svg>