<?xml version="1.0" encoding="UTF-8"?>
<svg id="Layer_1" data-name="Layer 1" xmlns="http://www.w3.org/2000/svg" viewBox="0 0 300 300">
  <defs>
    <style>
      .cls-1 {
        fill: #333;
      }
    </style>
  </defs>
  <path class="cls-1" d="m206.61,71.4c-16.8-15.79-38.77-23.69-61.89-22.24-41.46,2.56-74.67,35.77-77.26,77.25-1.64,26.19,8.83,50.99,28.72,68.04,12.67,10.88,19.94,27.04,19.94,44.34v20.3c0,2.75,2.23,4.97,4.97,4.97h1.26c1.01,10.61,4.98,25.93,27.65,25.93s26.64-15.32,27.65-25.93h1.27c2.75,0,4.97-2.23,4.97-4.97v-20.62c0-16.77,7.63-33.13,20.92-44.88,17.72-15.67,27.89-38.23,27.89-61.9s-9.51-44.72-26.09-60.29Zm16.07,58.86h-16.18c.27-1.25.4-2.52.4-3.79,0-1.57-.21-3.17-.61-4.77-1.66-6.42-6.91-11.54-13.37-13.04-5.57-1.3-11.28-.05-15.67,3.44-4.35,3.43-6.95,8.81-6.95,14.38,0,1.27.13,2.54.4,3.78h-15.74v-22.21c0-1.5-.68-2.93-1.85-3.87s-2.71-1.31-4.18-.99c-1.87.41-3.57.87-5.13,1.38-3.25,1.06-7.04-.09-9.16-2.77-1.59-2-2.16-4.64-1.55-7.23.67-2.86,3.02-5.27,5.84-6,1.71-.44,3.33-.4,4.89.12,1.61.54,3.3,1,5.11,1.39,1.47.32,3-.04,4.17-.99,1.17-.94,1.85-2.37,1.85-3.87v-26.06c16.76,1.11,32.41,7.81,44.83,19.48,14.45,13.57,22.5,31.87,22.88,51.62Zm-77.65-71.15v19.61c-2.78-.6-5.67-.53-8.56.21-6.42,1.66-11.54,6.91-13.04,13.37-1.3,5.57-.05,11.28,3.44,15.67,4.22,5.34,11.49,7.96,18.17,6.55v15.74h-22.21c-1.5,0-2.93.68-3.87,1.85-.94,1.17-1.31,2.71-.99,4.18.41,1.87.87,3.57,1.38,5.13.27.83.41,1.7.41,2.57,0,2.55-1.18,5.01-3.18,6.59-2,1.59-4.63,2.16-7.23,1.55-2.86-.67-5.27-3.02-6-5.83-.2-.78-.3-1.56-.3-2.29,0-.88.14-1.76.43-2.6.54-1.61,1-3.3,1.39-5.11.32-1.47-.04-3-.99-4.17-.94-1.17-2.37-1.85-3.87-1.85h-22.62c.02-1.08-.05-2.15.02-3.23,2.27-36.39,31.32-65.52,67.64-67.92Zm-42.37,127.8c-14.11-12.1-22.72-28.67-24.81-46.71h15.64c-.27,1.25-.4,2.52-.4,3.8,0,1.57.21,3.17.62,4.77,1.66,6.41,6.91,11.53,13.37,13.04,1.44.34,2.89.5,4.33.5,4.11,0,8.09-1.36,11.34-3.94,4.35-3.44,6.95-8.81,6.95-14.38,0-1.27-.13-2.54-.4-3.79h15.74v22.21c0,1.5.68,2.93,1.85,3.87,1.17.94,2.71,1.3,4.18.99,1.87-.41,3.57-.86,5.13-1.38,3.26-1.06,7.04.09,9.16,2.77,1.59,2,2.16,4.64,1.55,7.23-.67,2.86-3.02,5.27-5.83,6-1.71.44-3.34.4-4.9-.13-1.61-.54-3.3-1-5.11-1.39-1.47-.32-3,.05-4.17.99-1.17.94-1.85,2.36-1.85,3.87v39.38h-20.42c-3-14.7-10.62-28-21.95-37.72Zm71.29,51.56v15.65h-47.88v-15.33c0-1.42-.14-2.82-.22-4.22h48.32c-.08,1.3-.22,2.59-.22,3.9Zm-23.94,41.59c-12.51,0-16.33-5.18-17.62-15.99h35.24c-1.29,10.81-5.12,15.99-17.62,15.99Zm48.22-93.92c-11.76,10.4-19.66,23.95-22.77,38.48h-20.48v-32.89c2.78.6,5.66.53,8.57-.21,6.41-1.66,11.53-6.91,13.04-13.37,1.3-5.57.04-11.28-3.44-15.67-4.22-5.34-11.49-7.97-18.17-6.55v-15.74h22.21c1.5,0,2.93-.68,3.87-1.85.94-1.17,1.31-2.7.99-4.17-.41-1.87-.87-3.57-1.38-5.13-.27-.83-.41-1.7-.41-2.57,0-2.55,1.18-5.01,3.18-6.59,2-1.59,4.64-2.15,7.23-1.55,2.86.67,5.27,3.02,6,5.84.2.78.3,1.55.3,2.29,0,.88-.14,1.76-.42,2.6-.54,1.61-1,3.3-1.39,5.11-.32,1.47.04,3,.99,4.17.94,1.17,2.37,1.85,3.87,1.85h22.21c-2.08,17.64-10.55,34.05-23.99,45.94Z"/>
  <path class="cls-1" d="m66.93,191.58l-11.29,9c-2.15,1.71-2.5,4.84-.79,6.99.98,1.23,2.43,1.87,3.89,1.87,1.09,0,2.18-.35,3.1-1.08l11.29-9c2.15-1.71,2.5-4.84.79-6.99-1.71-2.15-4.84-2.5-6.99-.79Z"/>
  <path class="cls-1" d="m55.13,153.35c-.61-2.67-3.28-4.35-5.95-3.74l-14.08,3.21c-2.68.61-4.35,3.28-3.74,5.95.53,2.3,2.57,3.86,4.84,3.86.37,0,.74-.04,1.11-.12l14.08-3.21c2.68-.61,4.35-3.28,3.74-5.95Z"/>
  <path class="cls-1" d="m35.1,110.57l14.08,3.21c.37.08.75.13,1.11.13,2.27,0,4.32-1.56,4.84-3.87.61-2.67-1.06-5.34-3.74-5.95l-14.08-3.21c-2.68-.61-5.34,1.06-5.95,3.74-.61,2.68,1.06,5.34,3.74,5.95Z"/>
  <path class="cls-1" d="m66.93,71.81c.92.73,2.01,1.08,3.1,1.08,1.46,0,2.91-.64,3.89-1.87,1.71-2.15,1.36-5.27-.79-6.99l-11.29-9c-2.15-1.71-5.28-1.36-6.99.79-1.71,2.15-1.36,5.27.79,6.99l11.29,9Z"/>
  <path class="cls-1" d="m101.14,41.7c.86,1.78,2.63,2.82,4.48,2.82.72,0,1.46-.16,2.15-.5,2.47-1.19,3.51-4.16,2.32-6.64l-6.27-13.01c-1.19-2.47-4.16-3.51-6.63-2.32-2.47,1.19-3.51,4.16-2.32,6.64l6.27,13.01Z"/>
  <path class="cls-1" d="m150,34.38c2.74,0,4.97-2.23,4.97-4.97v-14.44c0-2.75-2.23-4.97-4.97-4.97s-4.97,2.23-4.97,4.97v14.44c0,2.75,2.23,4.97,4.97,4.97Z"/>
  <path class="cls-1" d="m192.22,44.02c.7.33,1.43.49,2.15.49,1.85,0,3.63-1.04,4.48-2.82l6.27-13.01c1.19-2.47.15-5.44-2.32-6.64-2.47-1.19-5.44-.15-6.63,2.32l-6.27,13.01c-1.19,2.47-.15,5.44,2.32,6.64Z"/>
  <path class="cls-1" d="m229.97,72.89c1.09,0,2.18-.35,3.1-1.08l11.29-9c2.15-1.71,2.5-4.84.79-6.99-1.71-2.15-4.84-2.5-6.99-.79l-11.29,9c-2.15,1.71-2.5,4.84-.79,6.99.98,1.23,2.43,1.87,3.89,1.87Z"/>
  <path class="cls-1" d="m244.87,110.04c.53,2.3,2.57,3.87,4.84,3.87.37,0,.74-.04,1.11-.13l14.08-3.21c2.68-.61,4.35-3.28,3.74-5.95-.61-2.68-3.29-4.35-5.95-3.74l-14.08,3.21c-2.68.61-4.35,3.27-3.74,5.95Z"/>
  <path class="cls-1" d="m264.9,152.82l-14.08-3.22c-2.67-.61-5.34,1.07-5.95,3.74-.61,2.68,1.06,5.34,3.74,5.95l14.08,3.21c.37.08.74.13,1.11.13,2.27,0,4.32-1.56,4.84-3.87.61-2.68-1.06-5.34-3.74-5.95Z"/>
  <path class="cls-1" d="m233.06,191.58c-2.15-1.71-5.28-1.36-6.99.79-1.71,2.15-1.36,5.27.79,6.99l11.29,9.01c.92.73,2.01,1.08,3.1,1.08,1.46,0,2.91-.64,3.89-1.87,1.71-2.15,1.36-5.27-.79-6.99l-11.29-9Z"/>
</svg>