<?xml version="1.0" encoding="UTF-8"?>
<svg id="Layer_1" data-name="Layer 1" xmlns="http://www.w3.org/2000/svg" viewBox="0 0 100 100">
  <defs>
    <style>
      .cls-1 {
        fill: #30a8ff;
      }

      .cls-1, .cls-2 {
        stroke-width: 0px;
      }

      .cls-2 {
        fill: #001e36;
      }
    </style>
  </defs>
  <rect class="cls-2" y="1.16" width="100" height="97.69" rx="17.96" ry="17.96"/>
  <path class="cls-1" d="m39.22,26.18h-16.3v43.43h9.15v-13.56h7.15c4.12,0,7.86-1.67,10.56-4.37,2.7-2.7,4.37-6.44,4.37-10.56,0-8.25-6.69-14.93-14.93-14.93Zm3.83,19.91c-1.28,1.27-3.04,2.06-4.98,2.06h-5.99v-14.09h5.99c3.89,0,7.05,3.15,7.05,7.05,0,1.95-.79,3.71-2.06,4.98Z"/>
  <path class="cls-1" d="m82.7,59.87c0,2.88-1.34,5.63-3.47,7.56-2.39,2.17-5.71,3.09-8.87,3.33-.38.03-.76.05-1.14.05-3.51.07-7.2-.67-10.38-2.15-.03-.02-.07-.03-.1-.05l.02-7.67c0,.14,2.54.75,2.85.86,2.89.95,6.35,1.66,9.4,1.27.64-.08,1.31-.24,1.8-.66,1.88-1.56-.03-3.5-1.56-4.25-1.66-.81-3.45-1.32-5.15-2.05-1.61-.69-3.14-1.59-4.43-2.78-4.24-3.95-4.08-10.58.25-14.42,2.45-2.17,5.75-2.86,8.94-3,3.3-.15,6.63.44,9.69,1.7.12.05.24.1.31.21.06.09.06.21.06.31,0,2.61,0,5.22,0,7.83-.5-.42-1.18-.6-1.77-.86-.64-.28-1.29-.53-1.96-.74-2.35-.75-5.41-1.45-7.83-.62-.89.3-1.55.94-1.55,1.92,0,1.52,1.49,2.25,2.71,2.81,1.51.69,3.12,1.11,4.63,1.81,3.91,1.81,7.54,4.92,7.54,9.59Z"/>
</svg>