<?xml version="1.0" encoding="UTF-8"?>
<svg id="Layer_1" data-name="Layer 1" xmlns="http://www.w3.org/2000/svg" viewBox="0 0 300 300">
  <defs>
    <style>
      .cls-1 {
        fill: #333;
      }
    </style>
  </defs>
  <path class="cls-1" d="m290,222.58c0-3.84-1.47-7.43-4.17-10.13-1.84-1.84-4.17-3.08-6.63-3.74.66-1.66,1.04-3.46,1.04-5.35,0-3.83-1.47-7.43-4.17-10.08-2.65-2.7-6.34-4.26-10.18-4.26h-52.27l6.3-4.59c6.06-4.45,7.62-12.83,3.65-19.08-2.6-4.12-7.24-6.68-12.12-6.68-2.89,0-5.77.9-8.05,2.56l-50.99,35.56c.43,1.75.61,3.55.61,5.35s-.24,3.65-.66,5.4c.85-.05,1.71-.38,2.42-.85l54.07-37.74c2.04-1.42,5.3-.76,6.72,1.47,1.33,2.08.8,4.88-1.23,6.35l-18.04,13.16c-1.66,1.18-2.32,3.36-1.7,5.3.62,1.94,2.46,3.27,4.5,3.27h66.8c1.28,0,2.56.52,3.46,1.42.9.95,1.42,2.18,1.42,3.46,0,2.75-2.13,4.88-4.88,4.88h-39.34c-2.6,0-4.73,2.13-4.73,4.73s2.13,4.73,4.73,4.73h49.1c1.33,0,2.51.52,3.46,1.42.9.95,1.42,2.18,1.42,3.46,0,2.7-2.18,4.88-4.88,4.88h-49.1c-2.6,0-4.73,2.08-4.73,4.73s2.13,4.73,4.73,4.73h40.81c2.7,0,4.88,2.18,4.88,4.88s-2.18,4.88-4.88,4.88l-40.81-.05c-2.65,0-4.73,2.13-4.73,4.73s2.08,4.73,4.73,4.73l27.37.05c1.51.05,2.56.8,3.17,1.47.99.95,1.47,2.32,1.37,3.79-.14,2.46-2.6,4.5-5.4,4.5h-49.47c-13.97,0-27.89-3.55-40.24-10.23l-9.04-4.88c-.66-.38-1.47-.57-2.23-.57h-29.4v6.34c0,1.04-.05,2.08-.24,3.13h28.41l8,4.31c13.73,7.43,29.17,11.36,44.74,11.36h49.47c7.77,0,14.3-5.82,14.87-13.3.14-2.04-.14-4.07-.8-5.92h.24c7.91,0,14.35-6.44,14.35-14.35,0-2.08-.43-4.02-1.23-5.77,5.54-1.99,9.52-7.25,9.52-13.45Z"/>
  <path class="cls-1" d="m136.88,214.2c4.12-2.56,6.68-7.2,6.68-12.07,0-2.94-.9-5.82-2.56-8.1l-35.03-50.19-3.93,2.75c-1.28.9-2.65,1.66-4.07,2.27l35.32,50.66c.52.71.8,1.66.8,2.6,0,1.66-.85,3.17-2.27,4.07-2.08,1.33-4.88.8-6.34-1.23l-13.16-17.99c-1.23-1.66-3.36-2.37-5.3-1.7-1.94.61-3.27,2.42-3.27,4.5v66.8c0,1.28-.47,2.51-1.42,3.41-.95.95-2.18,1.47-3.46,1.47-2.7,0-4.88-2.22-4.88-4.88v-39.39c0-2.6-2.13-4.73-4.73-4.73s-4.73,2.13-4.73,4.73v49.1c0,1.33-.52,2.56-1.42,3.46-.95.95-2.18,1.42-3.46,1.42-2.7,0-4.88-2.18-4.88-4.88v-49.1c0-2.6-2.08-4.73-4.73-4.73s-4.73,2.13-4.73,4.73v40.86c0,2.65-2.18,4.83-4.88,4.83s-4.83-2.18-4.83-4.83v-40.86c0-2.6-2.13-4.73-4.73-4.73s-4.73,2.13-4.73,4.73v27.37c-.09,1.47-.85,2.56-1.51,3.22-.95.95-2.32,1.42-3.79,1.37-2.46-.19-4.5-2.65-4.5-5.44v-49.43c0-14.01,3.55-27.93,10.23-40.29l4.88-9c.38-.71.57-1.47.57-2.27v-22.21h-9.47v21.02l-4.31,7.95c-7.43,13.73-11.36,29.21-11.36,44.79v49.43c0,7.81,5.82,14.35,13.3,14.87,2.08.14,4.07-.14,5.96-.8v.28c0,7.91,6.39,14.3,14.3,14.3,2.08,0,4.02-.43,5.78-1.23,1.99,5.54,7.24,9.52,13.45,9.52,3.84,0,7.43-1.47,10.13-4.17,1.85-1.85,3.08-4.12,3.74-6.63,1.66.71,3.46,1.09,5.35,1.09,3.84,0,7.43-1.51,10.08-4.17,2.7-2.65,4.26-6.39,4.26-10.18v-52.32l4.59,6.29c4.45,6.06,12.83,7.67,19.08,3.65Z"/>
  <path class="cls-1" d="m86.37,111.03l-6.3,4.59c-6.06,4.45-7.62,12.83-3.65,19.03,2.61,4.17,7.2,6.72,12.12,6.72,2.89,0,5.78-.95,8.05-2.56l50.99-35.56c-.43-1.75-.61-3.55-.61-5.35s.24-3.65.66-5.4c-.85.05-1.7.33-2.41.85l-54.07,37.69c-2.04,1.47-5.3.81-6.72-1.47-1.33-2.03-.81-4.83,1.23-6.34l18.04-13.16c1.66-1.18,2.32-3.32,1.7-5.25-.66-1.94-2.46-3.27-4.5-3.27H34.1c-1.32,0-2.51-.52-3.46-1.47-.9-.9-1.42-2.13-1.42-3.41,0-2.7,2.18-4.88,4.88-4.88l39.34-.05c2.65,0,4.73-2.08,4.73-4.73s-2.08-4.73-4.73-4.73H24.34c-1.28,0-2.51-.47-3.41-1.42-.95-.95-1.47-2.13-1.47-3.46,0-2.65,2.23-4.83,4.88-4.83h49.1c2.65,0,4.73-2.13,4.73-4.73s-2.08-4.73-4.73-4.73h-40.81c-2.7,0-4.88-2.23-4.88-4.88s2.18-4.88,4.88-4.88h40.86c2.6,0,4.73-2.13,4.73-4.73s-2.13-4.73-4.73-4.73h-27.18c-1.61-.05-2.7-.76-3.41-1.47-.99-.95-1.47-2.37-1.37-3.84.19-2.46,2.6-4.45,5.4-4.45h49.48c13.97,0,27.89,3.55,40.24,10.22l9.04,4.88c.66.33,1.47.52,2.22.52h29.4v-6.3c0-1.09.09-2.13.24-3.17h-28.46l-7.95-4.26c-13.73-7.43-29.16-11.36-44.74-11.36h-49.48c-7.76,0-14.3,5.82-14.86,13.26-.14,2.08.19,4.07.85,5.97h-.28c-7.91,0-14.34,6.44-14.34,14.34,0,2.04.47,3.98,1.23,5.78-5.49,1.99-9.52,7.2-9.52,13.4,0,3.83,1.51,7.43,4.21,10.13,1.84,1.9,4.12,3.13,6.63,3.74-.66,1.66-1.09,3.5-1.09,5.4,0,3.79,1.47,7.39,4.17,10.08,2.65,2.7,6.34,4.26,10.18,4.26h52.27Z"/>
  <path class="cls-1" d="m163.11,85.8c-4.12,2.61-6.67,7.25-6.67,12.12,0,2.89.9,5.78,2.56,8.05l35.04,50.28,3.98-2.79c1.23-.9,2.56-1.66,4.02-2.32l-35.32-50.61c-.52-.76-.8-1.66-.8-2.61,0-1.66.85-3.22,2.27-4.12,2.08-1.33,4.88-.76,6.34,1.23l13.16,18.04c1.23,1.66,3.36,2.32,5.3,1.7,1.94-.61,3.27-2.46,3.27-4.5V43.47c0-1.32.47-2.51,1.42-3.46.95-.9,2.18-1.42,3.46-1.42,2.7,0,4.88,2.18,4.88,4.88v39.34c0,2.61,2.13,4.73,4.73,4.73s4.73-2.13,4.73-4.73v-49.1c0-1.32.52-2.51,1.47-3.45.9-.9,2.13-1.42,3.41-1.42,2.7,0,4.88,2.18,4.88,4.88v49.1c0,2.61,2.13,4.73,4.73,4.73s4.73-2.13,4.73-4.73v-40.81c0-2.7,2.18-4.88,4.88-4.88s4.88,2.18,4.88,4.88l-.05,40.86c0,2.6,2.13,4.73,4.73,4.73s4.73-2.13,4.73-4.73l.05-27.41c.09-1.51.8-2.51,1.47-3.17.95-.99,2.27-1.52,3.79-1.37,2.46.19,4.5,2.6,4.5,5.4v49.47c0,13.97-3.55,27.89-10.23,40.24l-4.88,9.04c-.38.66-.57,1.47-.57,2.22v22.25h9.47v-21.02l4.31-8c7.43-13.73,11.36-29.17,11.36-44.74v-49.47c0-7.77-5.82-14.3-13.3-14.87-2.04-.14-4.07.14-5.92.8v-.24c0-7.91-6.44-14.34-14.35-14.34-2.04,0-3.98.43-5.78,1.23-1.99-5.54-7.24-9.52-13.45-9.52-3.79,0-7.39,1.51-10.09,4.17-1.89,1.85-3.12,4.17-3.74,6.63-1.66-.66-3.5-1.04-5.4-1.04-3.84,0-7.43,1.47-10.09,4.17-2.7,2.65-4.26,6.34-4.26,10.18v52.27l-4.59-6.29c-4.45-6.06-12.83-7.62-19.08-3.65Z"/>
</svg>