<?xml version="1.0" encoding="UTF-8"?>
<svg id="Layer_1" data-name="Layer 1" xmlns="http://www.w3.org/2000/svg" viewBox="0 0 300 300">
  <defs>
    <style>
      .cls-1 {
        fill: #333;
      }
    </style>
  </defs>
  <path class="cls-1" d="m155.16,243.68v-27.52c-1.7.2-3.41.26-5.16.26s-3.46-.05-5.16-.26v27.52c-10.43,2.32-18.28,11.67-18.28,22.83,0,12.96,10.48,23.5,23.45,23.5s23.5-10.54,23.5-23.5c0-11.16-7.85-20.5-18.33-22.83Zm-5.16,36c-7.23,0-13.12-5.89-13.12-13.17s5.89-13.12,13.12-13.12,13.17,5.89,13.17,13.12-5.94,13.17-13.17,13.17Z"/>
  <path class="cls-1" d="m99.55,193.12l-19.42,19.47c-3.72-2.38-8-3.67-12.55-3.67-6.25,0-12.14,2.43-16.58,6.87-4.44,4.44-6.87,10.33-6.87,16.58s2.43,12.19,6.87,16.63c4.44,4.44,10.33,6.87,16.58,6.87s12.19-2.43,16.63-6.87c7.9-7.9,8.93-20.04,3.2-29.13l19.42-19.42c-2.64-2.27-5.06-4.7-7.28-7.34Zm-22.67,48.54c-4.96,5.01-13.58,5.01-18.59,0-2.48-2.48-3.82-5.78-3.82-9.29s1.34-6.82,3.82-9.29c2.53-2.48,5.78-3.82,9.3-3.82s6.82,1.34,9.3,3.82c5.16,5.16,5.16,13.48,0,18.59Z"/>
  <path class="cls-1" d="m56.32,155.16h27.53c-.21-1.7-.26-3.41-.26-5.16s.05-3.46.26-5.16h-27.53c-2.38-10.48-11.67-18.33-22.83-18.33-12.96,0-23.5,10.54-23.5,23.5s10.53,23.45,23.5,23.45c11.16,0,20.45-7.85,22.83-18.28Zm-22.83,7.95c-7.28,0-13.17-5.89-13.17-13.12s5.89-13.17,13.17-13.17,13.12,5.89,13.12,13.17-5.89,13.12-13.12,13.12Z"/>
  <path class="cls-1" d="m67.58,91.08c4.54,0,8.83-1.34,12.55-3.67l19.42,19.47c2.22-2.64,4.7-5.11,7.33-7.33l-19.47-19.47c2.38-3.72,3.67-8.01,3.67-12.5,0-6.25-2.43-12.13-6.87-16.58-4.44-4.44-10.33-6.87-16.63-6.87s-12.14,2.43-16.58,6.87c-9.14,9.14-9.14,24.02,0,33.21,4.44,4.39,10.33,6.87,16.58,6.87Zm-9.3-32.79c2.53-2.48,5.78-3.82,9.3-3.82s6.82,1.34,9.3,3.82c2.53,2.48,3.87,5.78,3.87,9.29s-1.34,6.82-3.87,9.3c-4.96,4.96-13.58,4.96-18.59,0-5.11-5.11-5.11-13.48,0-18.59Z"/>
  <path class="cls-1" d="m144.84,56.32v27.53c1.7-.21,3.41-.26,5.16-.26s3.46.05,5.16.26v-27.53c10.48-2.38,18.33-11.72,18.33-22.88,0-12.91-10.54-23.45-23.5-23.45s-23.45,10.54-23.45,23.45c0,11.16,7.85,20.5,18.28,22.88Zm5.16-36c7.23,0,13.17,5.89,13.17,13.12s-5.94,13.17-13.17,13.17-13.12-5.89-13.12-13.17,5.89-13.12,13.12-13.12Z"/>
  <path class="cls-1" d="m200.45,106.88l19.42-19.47c3.72,2.32,8,3.67,12.55,3.67,6.25,0,12.14-2.48,16.58-6.87,4.55-4.6,6.87-10.59,6.87-16.63s-2.32-12.03-6.87-16.58c-4.44-4.44-10.33-6.87-16.58-6.87s-12.19,2.43-16.63,6.87c-4.44,4.44-6.87,10.33-6.87,16.58,0,4.49,1.29,8.78,3.67,12.5l-19.47,19.47c2.63,2.22,5.11,4.7,7.33,7.33Zm22.67-48.6c2.48-2.48,5.78-3.82,9.29-3.82s6.82,1.34,9.3,3.82c5.11,5.11,5.11,13.48,0,18.59-4.96,4.96-13.63,4.96-18.59,0-2.48-2.48-3.87-5.78-3.87-9.3s1.39-6.82,3.87-9.29Z"/>
  <path class="cls-1" d="m266.56,126.5c-11.21,0-20.5,7.85-22.88,18.33h-27.53c.21,1.7.26,3.41.26,5.16s-.05,3.46-.26,5.16h27.53c2.38,10.43,11.67,18.28,22.88,18.28,12.91,0,23.44-10.54,23.44-23.45s-10.53-23.5-23.44-23.5Zm0,36.61c-7.28,0-13.17-5.89-13.17-13.12s5.89-13.17,13.17-13.17,13.12,5.89,13.12,13.17-5.89,13.12-13.12,13.12Z"/>
  <path class="cls-1" d="m219.87,212.59l-19.42-19.47c-2.22,2.64-4.65,5.06-7.28,7.34l19.42,19.42c-2.38,3.72-3.67,8-3.67,12.5,0,6.3,2.43,12.19,6.87,16.63,4.6,4.54,10.59,6.87,16.63,6.87s12.03-2.32,16.58-6.87c9.14-9.14,9.14-24.07,0-33.21-7.9-7.9-20.04-8.93-29.13-3.2Zm21.84,29.07c-5.11,5.16-13.48,5.16-18.59,0-2.48-2.48-3.87-5.78-3.87-9.29s1.39-6.82,3.87-9.29c2.53-2.53,5.94-3.82,9.29-3.82s6.71,1.29,9.3,3.82c5.11,5.16,5.11,13.48,0,18.59Z"/>
  <path class="cls-1" d="m150.01,93.9c-30.93,0-56.09,25.16-56.09,56.08s25.16,56.08,56.09,56.08,56.08-25.16,56.08-56.08-25.16-56.08-56.08-56.08Zm0,101.84c-25.23,0-45.76-20.53-45.76-45.76s20.53-45.76,45.76-45.76,45.76,20.53,45.76,45.76-20.53,45.76-45.76,45.76Z"/>
  <path class="cls-1" d="m168.82,144.82h-13.65v-23.67c0-2.85-2.31-5.16-5.16-5.16s-5.16,2.31-5.16,5.16v28.83c0,2.85,2.31,5.16,5.16,5.16h18.81c2.85,0,5.16-2.31,5.16-5.16s-2.31-5.16-5.16-5.16Z"/>
</svg>