<?xml version="1.0" encoding="UTF-8"?>
<svg id="Layer_1" data-name="Layer 1" xmlns="http://www.w3.org/2000/svg" viewBox="0 0 300 300">
  <defs>
    <style>
      .cls-1 {
        fill: #00ade8;
      }

      .cls-2 {
        fill: #ffad00;
      }

      .cls-3 {
        fill: #e79700;
      }

      .cls-4 {
        fill: #e80059;
      }

      .cls-5 {
        fill: #ff8e00;
      }

      .cls-6 {
        fill: #9d9d9d;
      }

      .cls-7 {
        fill: #b3b3b3;
      }

      .cls-8 {
        fill: #333;
      }

      .cls-9 {
        fill: silver;
      }

      .cls-10 {
        fill: #cb004e;
      }

      .cls-11 {
        fill: #dfdfdf;
      }

      .cls-12 {
        fill: #1a1a1a;
      }

      .cls-13 {
        fill: #79c90e;
      }

      .cls-14 {
        fill: #a4a5a6;
      }

      .cls-14, .cls-15, .cls-16 {
        fill-rule: evenodd;
      }

      .cls-15 {
        fill: #fff;
      }

      .cls-16 {
        fill: #e6e6e6;
      }
    </style>
  </defs>
  <g id="Postproduction">
    <g>
      <g>
        <g>
          <path class="cls-11" d="m276.63,47.25h-5.95l-13.03,9.37h15.25c.94,0,1.71.77,1.71,1.71v71.48c0,.94-.77,1.71-1.71,1.71h-118.69c-.22,0-.42-.05-.62-.12l-22.83,16.41h2.2v9.77h-15.8l-22.66,16.28h54.74v9.77h-68.33l-11.93,8.57h207.65c1.98,0,3.6-1.59,3.6-3.55V50.8c0-1.95-1.62-3.55-3.6-3.55Z"/>
          <path class="cls-15" d="m25.04,47.25c-1.98,0-3.6,1.59-3.6,3.55v137.84c0,1.95,1.62,3.55,3.6,3.55h43.93L270.68,47.25H25.04Z"/>
        </g>
        <g>
          <rect class="cls-13" x="27.12" y="136.4" width="50.47" height="9.77"/>
          <rect class="cls-1" x="123.18" y="159.19" width="123.74" height="9.77"/>
          <rect class="cls-5" x="149.23" y="173.84" width="107.46" height="9.77"/>
          <g>
            <polygon class="cls-2" points="71.08 147.79 71.08 157.56 117.16 157.56 130.75 147.79 71.08 147.79"/>
            <polygon class="cls-3" points="132.95 147.79 130.75 147.79 117.16 157.56 132.95 157.56 132.95 147.79"/>
          </g>
          <g>
            <polygon class="cls-4" points="27.12 173.84 27.12 183.61 81.22 183.61 94.5 173.84 27.12 173.84"/>
            <polygon class="cls-10" points="149.23 173.84 94.5 173.84 80.9 183.61 149.23 183.61 149.23 173.84"/>
          </g>
        </g>
      </g>
      <g>
        <g>
          <path class="cls-7" d="m213.84,127.74c17.52,0,31.72-14.2,31.72-31.72,0-9.24-3.98-17.53-10.29-23.33l22.37-16.08h-103.44c-.94,0-1.71.77-1.71,1.71v71.48c0,.73.46,1.34,1.09,1.59l31.3-22.49c4.94,11.09,16.04,18.84,28.96,18.84Z"/>
          <path class="cls-6" d="m272.89,131.51c.94,0,1.71-.77,1.71-1.71V58.33c0-.94-.77-1.71-1.71-1.71h-15.25l-22.37,16.08c6.31,5.8,10.29,14.09,10.29,23.33,0,17.52-14.2,31.72-31.72,31.72-12.92,0-24.02-7.74-28.96-18.84l-31.3,22.49c.19.07.4.12.62.12h118.69Z"/>
        </g>
        <g>
          <path class="cls-8" d="m213.84,64.31c-17.51,0-31.71,14.19-31.71,31.71,0,4.59,1,8.94,2.75,12.88l50.39-36.21c-5.65-5.19-13.16-8.38-21.43-8.38Zm-17.92,33.88c-4.46,0-8.08-3.62-8.08-8.07s3.62-8.08,8.08-8.08,8.08,3.62,8.08,8.08-3.62,8.07-8.08,8.07Zm17.92-13.59c-4.46,0-8.07-3.62-8.07-8.07s3.61-8.08,8.07-8.08,8.08,3.62,8.08,8.08-3.62,8.07-8.08,8.07Z"/>
          <path d="m213.84,127.74c17.52,0,31.72-14.2,31.72-31.72,0-9.24-3.98-17.53-10.29-23.33l-50.39,36.21c4.94,11.09,16.04,18.84,28.96,18.84Zm18.13-46.09c4.46,0,8.07,3.62,8.07,8.08s-3.61,8.07-8.07,8.07-8.08-3.62-8.08-8.07,3.62-8.08,8.08-8.08Zm-6.7,21.67c4.46,0,8.08,3.61,8.08,8.07s-3.62,8.08-8.08,8.08-8.07-3.62-8.07-8.08,3.61-8.07,8.07-8.07Zm-11.43-12.02c2.61,0,4.73,2.12,4.73,4.73s-2.12,4.73-4.73,4.73-4.73-2.12-4.73-4.73,2.12-4.73,4.73-4.73Zm-11.03,11.23c4.46,0,8.07,3.61,8.07,8.07s-3.61,8.08-8.07,8.08-8.08-3.62-8.08-8.08,3.61-8.07,8.08-8.07Z"/>
        </g>
      </g>
      <g>
        <rect class="cls-7" x="27.12" y="56.62" width="122.11" height="74.9" rx="3.05" ry="3.05"/>
        <path class="cls-8" d="m75.97,94.06v-13.32c0-1.32,1.42-2.14,2.56-1.48l11.54,6.66,11.54,6.66c1.14.66,1.14,2.3,0,2.96l-11.54,6.66-11.54,6.66c-1.14.66-2.56-.16-2.56-1.48v-13.32Z"/>
      </g>
    </g>
    <g>
      <path class="cls-14" d="m179.15,240.08h-56.66c-.59,0-1.03.51-1,1.09.52,11.38-4.85,18.25-14,22.2-1.05.45-.77,1.99.37,1.99,28.12-.04,56.24-.06,84.36-.1,1.1,0,1.45-1.52.44-1.96-8.31-3.63-13.12-10.44-12.51-22.13.03-.59-.42-1.1-1-1.1Z"/>
      <g>
        <circle class="cls-12" cx="150.95" cy="222" r="10.6"/>
        <g>
          <path class="cls-16" d="m10,209.97v20.43c0,1.14.72,2.16,1.84,2.83l32.37-23.26H10Z"/>
          <path class="cls-9" d="m284.9,234.03c2.69,0,4.88-1.63,4.88-3.63v-20.43H44.22l-32.37,23.26c.84.5,1.89.8,3.04.8h270.02Zm-134.69-19.41c4.08,0,7.39,3.31,7.39,7.39s-3.31,7.39-7.39,7.39-7.39-3.3-7.39-7.39,3.31-7.39,7.39-7.39Z"/>
        </g>
      </g>
      <g>
        <path class="cls-8" d="m281.39,34.63H18.62c-4.74,0-8.62,3.87-8.62,8.6v160.89h42.36s9.75-7.01,9.75-7.01l6.86-4.93H25.04c-1.98,0-3.6-1.59-3.6-3.55V50.8c0-1.95,1.62-3.55,3.6-3.55h245.64l6.88-4.94,8.64-6.21c-1.38-.93-3.03-1.47-4.81-1.47Z"/>
        <path class="cls-12" d="m286.19,36.1l-8.64,6.21-6.88,4.94h5.95c1.98,0,3.6,1.59,3.6,3.55v137.84c0,1.95-1.62,3.55-3.6,3.55H68.97l-6.86,4.93-9.75,7.01h237.64s0-160.89,0-160.89c0-2.96-1.51-5.58-3.81-7.13Z"/>
      </g>
    </g>
  </g>
</svg>