<?xml version="1.0" encoding="UTF-8"?>
<svg id="Layer_1" data-name="Layer 1" xmlns="http://www.w3.org/2000/svg" viewBox="0 0 300 300">
  <defs>
    <style>
      .cls-1 {
        fill: #333;
      }
    </style>
  </defs>
  <path class="cls-1" d="m284.86,139.92h-18.98v-27.63c0-2.88-2.31-5.14-5.14-5.14-15.59,0-31.12,4.12-46.25,8.9-.82,4.12-2.06,8.13-3.7,11.99,15.38-5.04,30.09-9.57,44.81-10.44v135.04c-17.54.98-34.93,6.69-51.8,12.24-16.77,5.5-32.72,10.75-48.61,11.73v-59.26c-1.85.21-3.55.31-5.14.31s-3.34-.1-5.14-.31v59.26c-15.95-.98-31.84-6.23-48.61-11.73-16.87-5.56-34.31-11.27-51.85-12.24V117.59c14.71.87,29.32,5.4,44.7,10.39-1.59-3.86-2.83-7.82-3.6-11.94-15.18-4.78-30.66-8.9-46.25-8.9-2.83,0-5.14,2.27-5.14,5.14v27.63H15.14c-2.83,0-5.14,2.32-5.14,5.14v136.84c0,2.83,2.31,5.14,5.14,5.14h269.71c2.83,0,5.14-2.32,5.14-5.14v-136.84c0-2.83-2.31-5.14-5.14-5.14ZM20.29,276.75v-126.55h13.84v107.41c0,2.88,2.31,5.14,5.14,5.14,17.64,0,35.19,5.76,53.76,11.88,2.16.72,4.32,1.39,6.48,2.11H20.29Zm259.42,0h-79.22c2.16-.72,4.32-1.39,6.48-2.11,18.57-6.12,36.11-11.88,53.76-11.88,2.83,0,5.14-2.26,5.14-5.14v-107.41h13.84v126.55Z"/>
  <path class="cls-1" d="m63.91,178.71c9.57,2.21,19.45,5.81,28.96,9.31,9.31,3.39,18.98,6.89,28.6,9.26-3.39-2.83-5.66-7.05-5.66-11.88v-.36c-6.48-2.01-13.02-4.37-19.39-6.69-9.83-3.6-20.01-7.25-30.15-9.67-2.78-.67-5.55,1.03-6.22,3.81-.67,2.78,1.08,5.56,3.86,6.22Z"/>
  <path class="cls-1" d="m63.86,150.87c9.57,2.27,19.45,5.87,29.01,9.31,7.36,2.68,14.92,5.45,22.53,7.67-.72-4.79-2.73-9.16-5.81-12.65-4.42-1.49-8.85-3.09-13.17-4.68-9.88-3.55-20.01-7.25-30.15-9.67-2.78-.67-5.55,1.08-6.22,3.86-.67,2.73,1.08,5.5,3.81,6.17Z"/>
  <path class="cls-1" d="m125.41,215.47c-9.57-2.26-19.45-5.85-29-9.32-9.83-3.57-20-7.27-30.15-9.67-2.77-.65-5.54,1.06-6.19,3.82-.65,2.77,1.06,5.54,3.82,6.19,9.57,2.26,19.45,5.86,29,9.33,9.83,3.57,20,7.27,30.15,9.67.4.1.79.14,1.19.14,2.33,0,4.44-1.6,5-3.96.65-2.76-1.06-5.54-3.82-6.19Z"/>
  <path class="cls-1" d="m125.4,243.28c-9.57-2.26-19.45-5.85-29-9.32-9.83-3.57-20-7.27-30.15-9.67-2.77-.65-5.54,1.06-6.19,3.82-.65,2.77,1.06,5.54,3.82,6.19,9.57,2.26,19.45,5.85,29,9.33,9.83,3.57,20,7.27,30.15,9.67.4.1.79.14,1.19.14,2.33,0,4.44-1.59,5-3.96.65-2.77-1.06-5.54-3.82-6.19Z"/>
  <path class="cls-1" d="m239.95,172.48c-.67-2.78-3.45-4.48-6.17-3.81-10.19,2.42-20.32,6.07-30.15,9.67-6.38,2.31-12.96,4.68-19.44,6.69v.36c0,4.84-2.21,9.06-5.66,11.88,9.62-2.37,19.29-5.87,28.6-9.26,9.57-3.5,19.44-7.05,29.01-9.31,2.78-.67,4.48-3.45,3.81-6.22Z"/>
  <path class="cls-1" d="m239.95,144.7c-.67-2.78-3.45-4.53-6.17-3.86-10.19,2.42-20.32,6.12-30.15,9.67-4.27,1.54-8.64,3.14-12.96,4.63-3.19,3.76-5.3,8.13-6.07,12.71,7.61-2.21,15.18-4.99,22.53-7.67,9.57-3.45,19.44-7.05,29.01-9.31,2.78-.67,4.48-3.45,3.81-6.17Z"/>
  <path class="cls-1" d="m239.95,200.3c-.66-2.76-3.43-4.48-6.19-3.82-10.15,2.4-20.31,6.09-30.14,9.67-9.56,3.47-19.44,7.07-29.01,9.33-2.77.65-4.48,3.43-3.82,6.19.56,2.37,2.67,3.96,5,3.96.39,0,.79-.05,1.19-.14,10.15-2.4,20.32-6.09,30.16-9.67,9.55-3.47,19.43-7.06,29-9.32,2.77-.66,4.48-3.43,3.82-6.19Z"/>
  <path class="cls-1" d="m233.76,224.29c-10.15,2.4-20.32,6.09-30.15,9.67-9.56,3.47-19.43,7.06-29,9.33-2.77.65-4.48,3.42-3.82,6.19.56,2.37,2.67,3.96,5,3.96.39,0,.79-.05,1.19-.14,10.15-2.4,20.32-6.1,30.15-9.67,9.56-3.47,19.44-7.06,29-9.32,2.77-.65,4.48-3.43,3.82-6.19-.65-2.76-3.42-4.48-6.19-3.82Z"/>
  <path class="cls-1" d="m150.02,80.09c12.48,0,22.64,10.16,22.64,22.65,0,2.84,2.3,5.14,5.14,5.14s5.14-2.3,5.14-5.14c0-18.17-14.77-32.94-32.93-32.94-2.84,0-5.14,2.3-5.14,5.14s2.3,5.14,5.14,5.14Z"/>
  <path class="cls-1" d="m150.01,207.38c15.17,0,18.69-9.79,19.67-17.01,2.39-.44,4.24-2.44,4.24-4.96v-13.38c0-10.33,4.71-20.42,12.93-27.68,11.91-10.53,18.74-25.7,18.74-41.6s-6.39-30.05-17.53-40.52c-11.29-10.61-26.07-15.92-41.59-14.95-27.86,1.72-50.19,24.04-51.92,51.92-1.1,17.6,5.94,34.26,19.3,45.73,7.8,6.69,12.27,16.65,12.27,27.31v13.17c0,2.52,1.85,4.52,4.24,4.96.98,7.22,4.49,17.01,19.67,17.01Zm13.62-35.35v8.24h-27.23v-8.03c0-.28-.04-.55-.04-.82h27.31c0,.2-.03.41-.03.61Zm-13.62,25.06c-5.71,0-8.15-1.41-9.19-6.54h18.39c-1.05,5.12-3.48,6.54-9.19,6.54Zm-29.47-59.98c-10.89-9.34-16.63-22.93-15.73-37.28,1.42-22.71,19.6-40.89,42.29-42.29,12.67-.79,24.7,3.53,33.9,12.18,9.21,8.66,14.29,20.38,14.29,33.02s-5.56,25.31-15.27,33.89c-7.53,6.65-12.69,15.24-15,24.49h-29.98c-2.24-9.34-7.23-17.77-14.5-24.01Z"/>
  <path class="cls-1" d="m67.01,88.39l10.13,2.31c.39.09.77.13,1.15.13,2.35,0,4.47-1.62,5.01-4,.63-2.77-1.1-5.53-3.87-6.16l-10.13-2.31c-2.77-.63-5.53,1.1-6.16,3.87-.63,2.77,1.1,5.53,3.87,6.16Z"/>
  <path class="cls-1" d="m89.29,60.21c.95.76,2.08,1.12,3.2,1.12,1.51,0,3.01-.66,4.03-1.94,1.77-2.22,1.41-5.46-.81-7.23l-8.12-6.48c-2.22-1.77-5.46-1.41-7.23.81-1.77,2.22-1.41,5.46.81,7.23l8.12,6.48Z"/>
  <path class="cls-1" d="m113.45,38.01c.89,1.84,2.72,2.91,4.64,2.91.75,0,1.51-.16,2.23-.51,2.56-1.23,3.64-4.31,2.4-6.87l-4.51-9.36c-1.23-2.56-4.31-3.63-6.87-2.4-2.56,1.23-3.64,4.31-2.4,6.87l4.51,9.36Z"/>
  <path class="cls-1" d="m150.01,33.63c2.84,0,5.14-2.3,5.14-5.14v-10.39c0-2.84-2.3-5.14-5.14-5.14s-5.14,2.3-5.14,5.14v10.39c0,2.84,2.3,5.14,5.14,5.14Z"/>
  <path class="cls-1" d="m179.69,40.41c.72.35,1.48.51,2.23.51,1.91,0,3.75-1.07,4.64-2.91l4.51-9.36c1.23-2.56.16-5.63-2.4-6.87-2.56-1.23-5.63-.16-6.87,2.4l-4.51,9.36c-1.23,2.56-.16,5.63,2.4,6.87Z"/>
  <path class="cls-1" d="m207.53,61.33c1.12,0,2.26-.37,3.2-1.12l8.12-6.48c2.22-1.77,2.59-5.01.81-7.23-1.77-2.22-5.01-2.59-7.23-.82l-8.12,6.48c-2.22,1.77-2.59,5.01-.81,7.23,1.01,1.27,2.51,1.94,4.03,1.94Z"/>
  <path class="cls-1" d="m216.71,86.83c.54,2.38,2.66,4,5.01,4,.38,0,.76-.04,1.15-.13l10.13-2.31c2.77-.63,4.5-3.39,3.87-6.16-.63-2.77-3.39-4.5-6.16-3.87l-10.13,2.31c-2.77.63-4.5,3.39-3.87,6.16Z"/>
</svg>