<?xml version="1.0" encoding="UTF-8"?>
<svg id="Layer_1" data-name="Layer 1" xmlns="http://www.w3.org/2000/svg" viewBox="0 0 100 100">
  <defs>
    <style>
      .cls-1 {
        fill: #327499;
      }
    </style>
  </defs>
  <path class="cls-1" d="m51.09,5c1.28.13,2.55.26,3.83.39,7.34.76,14.08,3.18,20.16,7.34,9.53,6.52,15.79,15.37,18.61,26.6,4.65,18.52-3.24,38.26-19.35,48.55-5.98,3.82-12.47,6.09-19.52,6.86-22.81,2.47-43.29-12.55-48.46-34.1-.66-2.77-.81-5.66-1.2-8.5-.05-.34-.12-.68-.18-1.03,0-.7,0-1.41,0-2.11.06-.34.13-.68.18-1.03.4-2.86.56-5.78,1.24-8.57,2.74-11.27,9.05-20.14,18.6-26.67,6.08-4.15,12.82-6.58,20.15-7.34,1.28-.13,2.55-.26,3.83-.39.7,0,1.41,0,2.11,0ZM8.09,50.06c0,23.14,18.77,41.93,41.91,41.94,23.16,0,41.96-18.74,41.98-41.87.02-23.21-18.74-42.02-41.91-42.03-23.19,0-41.98,18.77-41.98,41.95Z"/>
  <path class="cls-1" d="m54.99,32.87c1.59,0,3.05-.04,4.51.01.73.03,1.02-.21.95-.94-.08-.92-.12-1.85-.17-2.78-.87-.04-1.74-.11-2.61-.11-6.54,0-13.08,0-19.62-.02-.82,0-1.17.18-1.1,1.06.07.87.02,1.75.02,2.77,1.44,0,2.81.06,4.17-.02.85-.05,1.21.25,1.49,1.05,1.7,4.92,3.47,9.82,5.17,14.74.16.46.2,1.05.05,1.5-2.32,6.75-4.68,13.48-7.04,20.22-.04.11-.11.21-.22.43-4.47-12.64-8.91-25.19-13.41-37.91,1.15,0,2.19,0,3.23,0q1.74,0,1.74-1.78c0-.38-.03-.77,0-1.14.07-.7-.21-.91-.9-.9-3.72.03-7.45.01-11.17.01-.32,0-.64,0-1.22,0,5.56-7.95,12.8-13.21,22.04-15.44,13.01-3.13,24.52.07,34.82,8.89-2.23.02-4,.62-5.41,2.01-1.65,1.62-2.56,3.56-2.17,5.92.1.58.45,1.14.77,1.65,1.37,2.15,2.94,4.19,4.12,6.43,2.33,4.4,2.75,9.15,1.47,13.9-1.23,4.56-2.86,9.02-4.34,13.52-.52,1.58-1.1,3.14-1.72,4.93-4.51-12.74-8.95-25.3-13.44-37.99Z"/>
  <path class="cls-1" d="m61.03,86.01c-7.55,2.22-14.96,2.17-22.49-.16,3.85-10.2,7.68-20.33,11.58-30.66,3.67,10.38,7.27,20.56,10.9,30.82Z"/>
  <path class="cls-1" d="m82.99,32.1c9.83,17.54,3.52,41.04-14.94,50.86.08-.3.12-.54.2-.77,4.39-12.28,8.77-24.56,13.2-36.82,1.4-3.88,1.89-7.87,1.72-11.96-.02-.38-.1-.75-.17-1.32Z"/>
  <path class="cls-1" d="m32.16,83.07c-17.94-9.72-23.85-31.03-16.78-47.44,5.61,15.86,11.17,31.57,16.78,47.44Z"/>
</svg>