<?xml version="1.0" encoding="UTF-8"?>
<svg id="Layer_1" data-name="Layer 1" xmlns="http://www.w3.org/2000/svg" viewBox="0 0 100 100">
  <defs>
    <style>
      .cls-1 {
        fill: #470137;
      }

      .cls-1, .cls-2 {
        stroke-width: 0px;
      }

      .cls-2 {
        fill: #e770e8;
      }
    </style>
  </defs>
  <rect class="cls-1" y="1.16" width="100" height="97.69" rx="17.96" ry="17.96"/>
  <g>
    <polygon class="cls-2" points="14.89 29.34 25.69 29.34 34.34 45.53 43.2 29.34 53.59 29.34 40.55 50.37 54.22 73.4 42.76 73.4 33.82 57.1 25.24 73.4 14.25 73.4 27.91 51.37 14.89 29.34"/>
    <path class="cls-2" d="m76.18,25.87v13.56h-5.84c-8.2,0-14.85,6.65-14.85,14.85v4.99c0,8.2,6.65,14.85,14.85,14.85h5.84s9.46-.73,9.57-3.58V25.87h-9.57Zm0,40.38h-3.57c-4.48,0-8.1-3.63-8.1-8.1v-2.72c0-4.48,3.63-8.1,8.1-8.1h3.57v18.93Z"/>
  </g>
</svg>