<?xml version="1.0" encoding="UTF-8"?>
<svg id="Layer_1" data-name="Layer 1" xmlns="http://www.w3.org/2000/svg" viewBox="0 0 100 100">
  <defs>
    <style>
      .cls-1 {
        fill: #e770e8;
      }

      .cls-2 {
        fill: #470137;
      }
    </style>
  </defs>
  <rect class="cls-2" x="3.93" y="5" width="92.13" height="90" rx="16.55" ry="16.55"/>
  <g>
    <polygon class="cls-1" points="17.65 30.97 27.6 30.97 35.58 45.89 43.74 30.97 53.31 30.97 41.29 50.34 53.89 71.56 43.33 71.56 35.09 56.54 27.19 71.56 17.07 71.56 29.65 51.26 17.65 30.97"/>
    <path class="cls-1" d="m74.12,27.77v12.5h-5.38c-7.56,0-13.69,6.13-13.69,13.69v4.6c0,7.56,6.13,13.69,13.69,13.69h5.38s8.72-.67,8.82-3.29V27.77h-8.82Zm0,37.2h-3.29c-4.12,0-7.47-3.34-7.47-7.47v-2.51c0-4.12,3.34-7.47,7.47-7.47h3.29v17.44Z"/>
  </g>
</svg>